<mxfile host="app.diagrams.net" modified="2024-01-10T22:12:17.629Z" agent="Mozilla/5.0 (X11; Ubuntu; Linux x86_64; rv:120.0) Gecko/20100101 Firefox/120.0" etag="yTWkqm4VCE7kQUHksofv" version="22.1.18" type="device">
  <diagram name="Page-1" id="i2DMALY9Xvrg91dQCHIN">
    <mxGraphModel dx="2449" dy="1646" grid="0" gridSize="10" guides="1" tooltips="1" connect="1" arrows="1" fold="1" page="0" pageScale="1" pageWidth="850" pageHeight="1100" math="0" shadow="0">
      <root>
        <mxCell id="0" />
        <mxCell id="1" parent="0" />
        <mxCell id="XYY6bWEJs2ji5yLr34Nl-1" value="9" style="rounded=0;whiteSpace=wrap;html=1;fontSize=16;fillColor=#ffe6cc;strokeColor=#d79b00;" vertex="1" parent="1">
          <mxGeometry x="-195" y="-226" width="64" height="64" as="geometry" />
        </mxCell>
        <mxCell id="XYY6bWEJs2ji5yLr34Nl-3" value="" style="rounded=0;whiteSpace=wrap;html=1;fontSize=16;fillColor=#ffe6cc;strokeColor=#d79b00;" vertex="1" parent="1">
          <mxGeometry x="-131" y="-226" width="64" height="64" as="geometry" />
        </mxCell>
        <mxCell id="XYY6bWEJs2ji5yLr34Nl-4" value="3" style="rounded=0;whiteSpace=wrap;html=1;fontSize=16;fillColor=#ffe6cc;strokeColor=#d79b00;" vertex="1" parent="1">
          <mxGeometry x="-67" y="-226" width="64" height="64" as="geometry" />
        </mxCell>
        <mxCell id="XYY6bWEJs2ji5yLr34Nl-10" value="5" style="rounded=0;whiteSpace=wrap;html=1;fontSize=16;fillColor=#ffe6cc;strokeColor=#d79b00;" vertex="1" parent="1">
          <mxGeometry x="-195" y="-162" width="64" height="64" as="geometry" />
        </mxCell>
        <mxCell id="XYY6bWEJs2ji5yLr34Nl-12" value="2" style="rounded=0;whiteSpace=wrap;html=1;fontSize=16;fillColor=#ffe6cc;strokeColor=#d79b00;" vertex="1" parent="1">
          <mxGeometry x="-131" y="-162" width="64" height="64" as="geometry" />
        </mxCell>
        <mxCell id="XYY6bWEJs2ji5yLr34Nl-13" value="7" style="rounded=0;whiteSpace=wrap;html=1;fontSize=16;fillColor=#ffe6cc;strokeColor=#d79b00;" vertex="1" parent="1">
          <mxGeometry x="-67" y="-162" width="64" height="64" as="geometry" />
        </mxCell>
        <mxCell id="XYY6bWEJs2ji5yLr34Nl-22" value="" style="rounded=0;whiteSpace=wrap;html=1;fontSize=16;fillColor=#ffe6cc;strokeColor=#d79b00;" vertex="1" parent="1">
          <mxGeometry x="-195" y="-98" width="64" height="64" as="geometry" />
        </mxCell>
        <mxCell id="XYY6bWEJs2ji5yLr34Nl-23" value="1" style="text;html=1;align=center;verticalAlign=middle;resizable=0;points=[];autosize=1;fontSize=16;" vertex="1" parent="1">
          <mxGeometry x="-176.5" y="-81.5" width="27" height="31" as="geometry" />
        </mxCell>
        <mxCell id="XYY6bWEJs2ji5yLr34Nl-24" value="8" style="rounded=0;whiteSpace=wrap;html=1;fontSize=16;fillColor=#ffe6cc;strokeColor=#d79b00;" vertex="1" parent="1">
          <mxGeometry x="-131" y="-98" width="65" height="65" as="geometry" />
        </mxCell>
        <mxCell id="XYY6bWEJs2ji5yLr34Nl-25" value="4" style="rounded=0;whiteSpace=wrap;html=1;fontSize=16;fillColor=#ffe6cc;strokeColor=#d79b00;" vertex="1" parent="1">
          <mxGeometry x="-67" y="-98" width="64" height="64" as="geometry" />
        </mxCell>
        <mxCell id="XYY6bWEJs2ji5yLr34Nl-26" value="6" style="text;html=1;align=center;verticalAlign=middle;resizable=0;points=[];autosize=1;fontSize=16;" vertex="1" parent="1">
          <mxGeometry x="-112.5" y="-209.5" width="27" height="31" as="geometry" />
        </mxCell>
        <mxCell id="XYY6bWEJs2ji5yLr34Nl-32" value="" style="rounded=0;whiteSpace=wrap;html=1;fontSize=16;fillColor=#ffe6cc;strokeColor=#d79b00;" vertex="1" parent="1">
          <mxGeometry x="-3" y="-226" width="64" height="64" as="geometry" />
        </mxCell>
        <mxCell id="XYY6bWEJs2ji5yLr34Nl-33" value="2" style="text;html=1;align=center;verticalAlign=middle;resizable=0;points=[];autosize=1;strokeColor=none;fillColor=none;fontSize=16;" vertex="1" parent="1">
          <mxGeometry x="15.5" y="-209.5" width="27" height="31" as="geometry" />
        </mxCell>
        <mxCell id="XYY6bWEJs2ji5yLr34Nl-34" value="1" style="rounded=0;whiteSpace=wrap;html=1;fontSize=16;fillColor=#ffe6cc;strokeColor=#d79b00;" vertex="1" parent="1">
          <mxGeometry x="61" y="-226" width="64" height="64" as="geometry" />
        </mxCell>
        <mxCell id="XYY6bWEJs2ji5yLr34Nl-35" value="" style="rounded=0;whiteSpace=wrap;html=1;fontSize=16;fillColor=#ffe6cc;strokeColor=#d79b00;" vertex="1" parent="1">
          <mxGeometry x="125" y="-226" width="64" height="64" as="geometry" />
        </mxCell>
        <mxCell id="XYY6bWEJs2ji5yLr34Nl-36" value="8" style="rounded=0;whiteSpace=wrap;html=1;fontSize=16;fillColor=#ffe6cc;strokeColor=#d79b00;" vertex="1" parent="1">
          <mxGeometry x="-3" y="-162" width="64" height="64" as="geometry" />
        </mxCell>
        <mxCell id="XYY6bWEJs2ji5yLr34Nl-38" value="" style="rounded=0;whiteSpace=wrap;html=1;fontSize=16;fillColor=#ffe6cc;strokeColor=#d79b00;" vertex="1" parent="1">
          <mxGeometry x="61" y="-162" width="64" height="64" as="geometry" />
        </mxCell>
        <mxCell id="XYY6bWEJs2ji5yLr34Nl-39" value="5" style="rounded=0;whiteSpace=wrap;html=1;fontSize=16;fillColor=#ffe6cc;strokeColor=#d79b00;" vertex="1" parent="1">
          <mxGeometry x="125" y="-162" width="64" height="64" as="geometry" />
        </mxCell>
        <mxCell id="XYY6bWEJs2ji5yLr34Nl-40" value="" style="rounded=0;whiteSpace=wrap;html=1;fontSize=16;fillColor=#ffe6cc;strokeColor=#d79b00;" vertex="1" parent="1">
          <mxGeometry x="-3" y="-98" width="64" height="64" as="geometry" />
        </mxCell>
        <mxCell id="XYY6bWEJs2ji5yLr34Nl-41" value="6" style="text;html=1;align=center;verticalAlign=middle;resizable=0;points=[];autosize=1;fontSize=16;" vertex="1" parent="1">
          <mxGeometry x="15.5" y="-81.5" width="27" height="31" as="geometry" />
        </mxCell>
        <mxCell id="XYY6bWEJs2ji5yLr34Nl-42" value="4" style="rounded=0;whiteSpace=wrap;html=1;fontSize=16;fillColor=#ffe6cc;strokeColor=#d79b00;" vertex="1" parent="1">
          <mxGeometry x="61" y="-98" width="64" height="64" as="geometry" />
        </mxCell>
        <mxCell id="XYY6bWEJs2ji5yLr34Nl-43" value="7" style="rounded=0;whiteSpace=wrap;html=1;fontSize=16;fillColor=#ffe6cc;strokeColor=#d79b00;" vertex="1" parent="1">
          <mxGeometry x="125" y="-98" width="64" height="64" as="geometry" />
        </mxCell>
        <mxCell id="XYY6bWEJs2ji5yLr34Nl-45" value="9" style="text;html=1;align=center;verticalAlign=middle;resizable=0;points=[];autosize=1;strokeColor=none;fillColor=none;fontSize=16;" vertex="1" parent="1">
          <mxGeometry x="143.5" y="-209.5" width="27" height="31" as="geometry" />
        </mxCell>
        <mxCell id="XYY6bWEJs2ji5yLr34Nl-46" value="3" style="text;html=1;align=center;verticalAlign=middle;resizable=0;points=[];autosize=1;strokeColor=none;fillColor=none;fontSize=16;" vertex="1" parent="1">
          <mxGeometry x="79.5" y="-145.5" width="27" height="31" as="geometry" />
        </mxCell>
        <mxCell id="XYY6bWEJs2ji5yLr34Nl-50" value="2" style="rounded=0;whiteSpace=wrap;html=1;fontSize=16;fillColor=#ffe6cc;strokeColor=#d79b00;" vertex="1" parent="1">
          <mxGeometry x="189" y="-226" width="64" height="64" as="geometry" />
        </mxCell>
        <mxCell id="XYY6bWEJs2ji5yLr34Nl-52" value="4" style="rounded=0;whiteSpace=wrap;html=1;fontSize=16;fillColor=#ffe6cc;strokeColor=#d79b00;" vertex="1" parent="1">
          <mxGeometry x="253" y="-226" width="64" height="64" as="geometry" />
        </mxCell>
        <mxCell id="XYY6bWEJs2ji5yLr34Nl-53" value="6" style="rounded=0;whiteSpace=wrap;html=1;fontSize=16;fillColor=#ffe6cc;strokeColor=#d79b00;" vertex="1" parent="1">
          <mxGeometry x="317" y="-226" width="64" height="64" as="geometry" />
        </mxCell>
        <mxCell id="XYY6bWEJs2ji5yLr34Nl-54" value="7" style="rounded=0;whiteSpace=wrap;html=1;fontSize=16;fillColor=#ffe6cc;strokeColor=#d79b00;" vertex="1" parent="1">
          <mxGeometry x="189" y="-162" width="64" height="64" as="geometry" />
        </mxCell>
        <mxCell id="XYY6bWEJs2ji5yLr34Nl-56" value="" style="rounded=0;whiteSpace=wrap;html=1;fontSize=16;fillColor=#ffe6cc;strokeColor=#d79b00;" vertex="1" parent="1">
          <mxGeometry x="253" y="-162" width="64" height="64" as="geometry" />
        </mxCell>
        <mxCell id="XYY6bWEJs2ji5yLr34Nl-57" value="3" style="rounded=0;whiteSpace=wrap;html=1;fontSize=16;fillColor=#ffe6cc;strokeColor=#d79b00;" vertex="1" parent="1">
          <mxGeometry x="317" y="-162" width="64" height="64" as="geometry" />
        </mxCell>
        <mxCell id="XYY6bWEJs2ji5yLr34Nl-58" value="8" style="rounded=0;whiteSpace=wrap;html=1;fontSize=16;fillColor=#ffe6cc;strokeColor=#d79b00;" vertex="1" parent="1">
          <mxGeometry x="189" y="-98" width="64" height="64" as="geometry" />
        </mxCell>
        <mxCell id="XYY6bWEJs2ji5yLr34Nl-60" value="5" style="rounded=0;whiteSpace=wrap;html=1;fontSize=16;fillColor=#ffe6cc;strokeColor=#d79b00;" vertex="1" parent="1">
          <mxGeometry x="253" y="-98" width="64" height="64" as="geometry" />
        </mxCell>
        <mxCell id="XYY6bWEJs2ji5yLr34Nl-61" value="" style="rounded=0;whiteSpace=wrap;html=1;fontSize=16;fillColor=#ffe6cc;strokeColor=#d79b00;" vertex="1" parent="1">
          <mxGeometry x="317" y="-98" width="64" height="64" as="geometry" />
        </mxCell>
        <mxCell id="XYY6bWEJs2ji5yLr34Nl-64" value="1" style="text;html=1;align=center;verticalAlign=middle;resizable=0;points=[];autosize=1;strokeColor=none;fillColor=none;fontSize=16;" vertex="1" parent="1">
          <mxGeometry x="271.5" y="-145.5" width="27" height="31" as="geometry" />
        </mxCell>
        <mxCell id="XYY6bWEJs2ji5yLr34Nl-67" value="9" style="text;html=1;align=center;verticalAlign=middle;resizable=0;points=[];autosize=1;fontSize=16;" vertex="1" parent="1">
          <mxGeometry x="335.5" y="-81.5" width="27" height="31" as="geometry" />
        </mxCell>
        <mxCell id="XYY6bWEJs2ji5yLr34Nl-68" value="" style="rounded=0;whiteSpace=wrap;html=1;fontSize=16;fillColor=#ffe6cc;strokeColor=#d79b00;" vertex="1" parent="1">
          <mxGeometry x="-195" y="-34" width="64" height="64" as="geometry" />
        </mxCell>
        <mxCell id="XYY6bWEJs2ji5yLr34Nl-69" value="4" style="text;html=1;align=center;verticalAlign=middle;resizable=0;points=[];autosize=1;strokeColor=none;fillColor=none;fontSize=16;" vertex="1" parent="1">
          <mxGeometry x="-176.5" y="-17.5" width="27" height="31" as="geometry" />
        </mxCell>
        <mxCell id="XYY6bWEJs2ji5yLr34Nl-70" value="" style="rounded=0;whiteSpace=wrap;html=1;fontSize=16;fillColor=#ffe6cc;strokeColor=#d79b00;" vertex="1" parent="1">
          <mxGeometry x="-131" y="-34" width="64" height="64" as="geometry" />
        </mxCell>
        <mxCell id="XYY6bWEJs2ji5yLr34Nl-71" value="1" style="rounded=0;whiteSpace=wrap;html=1;fontSize=16;fillColor=#ffe6cc;strokeColor=#d79b00;" vertex="1" parent="1">
          <mxGeometry x="-67" y="-34" width="64" height="64" as="geometry" />
        </mxCell>
        <mxCell id="XYY6bWEJs2ji5yLr34Nl-72" value="6" style="rounded=0;whiteSpace=wrap;html=1;fontSize=16;fillColor=#ffe6cc;strokeColor=#d79b00;" vertex="1" parent="1">
          <mxGeometry x="-195" y="30" width="64" height="64" as="geometry" />
        </mxCell>
        <mxCell id="XYY6bWEJs2ji5yLr34Nl-74" value="7" style="rounded=0;whiteSpace=wrap;html=1;fontSize=16;fillColor=#ffe6cc;strokeColor=#d79b00;" vertex="1" parent="1">
          <mxGeometry x="-131" y="30" width="64" height="64" as="geometry" />
        </mxCell>
        <mxCell id="XYY6bWEJs2ji5yLr34Nl-75" value="" style="rounded=0;whiteSpace=wrap;html=1;fontSize=16;fillColor=#ffe6cc;strokeColor=#d79b00;" vertex="1" parent="1">
          <mxGeometry x="-67" y="30" width="64" height="64" as="geometry" />
        </mxCell>
        <mxCell id="XYY6bWEJs2ji5yLr34Nl-76" value="9" style="rounded=0;whiteSpace=wrap;html=1;fontSize=16;fillColor=#ffe6cc;strokeColor=#d79b00;" vertex="1" parent="1">
          <mxGeometry x="-195" y="94" width="64" height="64" as="geometry" />
        </mxCell>
        <mxCell id="XYY6bWEJs2ji5yLr34Nl-78" value="" style="rounded=0;whiteSpace=wrap;html=1;fontSize=16;fillColor=#ffe6cc;strokeColor=#d79b00;" vertex="1" parent="1">
          <mxGeometry x="-131" y="94" width="64" height="64" as="geometry" />
        </mxCell>
        <mxCell id="XYY6bWEJs2ji5yLr34Nl-79" value="" style="rounded=0;whiteSpace=wrap;html=1;fontSize=16;fillColor=#ffe6cc;strokeColor=#d79b00;" vertex="1" parent="1">
          <mxGeometry x="-67" y="94" width="64" height="64" as="geometry" />
        </mxCell>
        <mxCell id="XYY6bWEJs2ji5yLr34Nl-80" value="2" style="text;html=1;align=center;verticalAlign=middle;resizable=0;points=[];autosize=1;strokeColor=none;fillColor=none;fontSize=16;" vertex="1" parent="1">
          <mxGeometry x="-112.5" y="-17.5" width="27" height="31" as="geometry" />
        </mxCell>
        <mxCell id="XYY6bWEJs2ji5yLr34Nl-83" value="5" style="text;html=1;align=center;verticalAlign=middle;resizable=0;points=[];autosize=1;strokeColor=none;fillColor=none;fontSize=16;" vertex="1" parent="1">
          <mxGeometry x="-48.5" y="46.5" width="27" height="31" as="geometry" />
        </mxCell>
        <mxCell id="XYY6bWEJs2ji5yLr34Nl-84" value="8" style="text;html=1;align=center;verticalAlign=middle;resizable=0;points=[];autosize=1;strokeColor=none;fillColor=none;fontSize=16;" vertex="1" parent="1">
          <mxGeometry x="-112.5" y="110.5" width="27" height="31" as="geometry" />
        </mxCell>
        <mxCell id="XYY6bWEJs2ji5yLr34Nl-85" value="3" style="text;html=1;align=center;verticalAlign=middle;resizable=0;points=[];autosize=1;strokeColor=none;fillColor=none;fontSize=16;" vertex="1" parent="1">
          <mxGeometry x="-48.5" y="110.5" width="27" height="31" as="geometry" />
        </mxCell>
        <mxCell id="XYY6bWEJs2ji5yLr34Nl-86" value="" style="rounded=0;whiteSpace=wrap;html=1;fontSize=16;fillColor=#ffe6cc;strokeColor=#d79b00;" vertex="1" parent="1">
          <mxGeometry x="-3" y="-34" width="64" height="64" as="geometry" />
        </mxCell>
        <mxCell id="XYY6bWEJs2ji5yLr34Nl-87" value="5" style="text;html=1;align=center;verticalAlign=middle;resizable=0;points=[];autosize=1;strokeColor=none;fillColor=none;fontSize=16;" vertex="1" parent="1">
          <mxGeometry x="15.5" y="-17.5" width="27" height="31" as="geometry" />
        </mxCell>
        <mxCell id="XYY6bWEJs2ji5yLr34Nl-88" value="4" style="rounded=0;whiteSpace=wrap;html=1;fontSize=16;fillColor=#ffe6cc;strokeColor=#d79b00;" vertex="1" parent="1">
          <mxGeometry x="61" y="-34" width="64" height="64" as="geometry" />
        </mxCell>
        <mxCell id="XYY6bWEJs2ji5yLr34Nl-89" value="9" style="rounded=0;whiteSpace=wrap;html=1;fontSize=16;fillColor=#ffe6cc;strokeColor=#d79b00;" vertex="1" parent="1">
          <mxGeometry x="125" y="-34" width="64" height="64" as="geometry" />
        </mxCell>
        <mxCell id="XYY6bWEJs2ji5yLr34Nl-90" value="" style="rounded=0;whiteSpace=wrap;html=1;fontSize=16;fillColor=#ffe6cc;strokeColor=#d79b00;" vertex="1" parent="1">
          <mxGeometry x="-3" y="30" width="64" height="64" as="geometry" />
        </mxCell>
        <mxCell id="XYY6bWEJs2ji5yLr34Nl-91" value="3" style="text;html=1;align=center;verticalAlign=middle;resizable=0;points=[];autosize=1;strokeColor=none;fillColor=none;fontSize=16;" vertex="1" parent="1">
          <mxGeometry x="15.5" y="46.5" width="27" height="31" as="geometry" />
        </mxCell>
        <mxCell id="XYY6bWEJs2ji5yLr34Nl-92" value="6" style="rounded=0;whiteSpace=wrap;html=1;fontSize=16;fillColor=#ffe6cc;strokeColor=#d79b00;" vertex="1" parent="1">
          <mxGeometry x="61" y="30" width="64" height="64" as="geometry" />
        </mxCell>
        <mxCell id="XYY6bWEJs2ji5yLr34Nl-93" value="" style="rounded=0;whiteSpace=wrap;html=1;fontSize=16;fillColor=#ffe6cc;strokeColor=#d79b00;" vertex="1" parent="1">
          <mxGeometry x="125" y="30" width="64" height="64" as="geometry" />
        </mxCell>
        <mxCell id="XYY6bWEJs2ji5yLr34Nl-94" value="" style="rounded=0;whiteSpace=wrap;html=1;fontSize=16;fillColor=#ffe6cc;strokeColor=#d79b00;" vertex="1" parent="1">
          <mxGeometry x="-3" y="94" width="64" height="64" as="geometry" />
        </mxCell>
        <mxCell id="XYY6bWEJs2ji5yLr34Nl-95" value="1" style="text;html=1;align=center;verticalAlign=middle;resizable=0;points=[];autosize=1;strokeColor=none;fillColor=none;fontSize=16;" vertex="1" parent="1">
          <mxGeometry x="15.5" y="110.5" width="27" height="31" as="geometry" />
        </mxCell>
        <mxCell id="XYY6bWEJs2ji5yLr34Nl-96" value="7" style="rounded=0;whiteSpace=wrap;html=1;fontSize=16;fillColor=#ffe6cc;strokeColor=#d79b00;" vertex="1" parent="1">
          <mxGeometry x="61" y="94" width="64" height="64" as="geometry" />
        </mxCell>
        <mxCell id="XYY6bWEJs2ji5yLr34Nl-97" value="8" style="rounded=0;whiteSpace=wrap;html=1;fontSize=16;fillColor=#ffe6cc;strokeColor=#d79b00;" vertex="1" parent="1">
          <mxGeometry x="125" y="94" width="64" height="64" as="geometry" />
        </mxCell>
        <mxCell id="XYY6bWEJs2ji5yLr34Nl-101" value="2" style="text;html=1;align=center;verticalAlign=middle;resizable=0;points=[];autosize=1;strokeColor=none;fillColor=none;fontSize=16;" vertex="1" parent="1">
          <mxGeometry x="143.5" y="46.5" width="27" height="31" as="geometry" />
        </mxCell>
        <mxCell id="XYY6bWEJs2ji5yLr34Nl-104" value="1" style="rounded=0;whiteSpace=wrap;html=1;fontSize=16;fillColor=#ffe6cc;strokeColor=#d79b00;" vertex="1" parent="1">
          <mxGeometry x="189" y="-34" width="64" height="64" as="geometry" />
        </mxCell>
        <mxCell id="XYY6bWEJs2ji5yLr34Nl-106" value="" style="rounded=0;whiteSpace=wrap;html=1;fontSize=16;fillColor=#ffe6cc;strokeColor=#d79b00;" vertex="1" parent="1">
          <mxGeometry x="253" y="-34" width="64" height="64" as="geometry" />
        </mxCell>
        <mxCell id="XYY6bWEJs2ji5yLr34Nl-107" value="5" style="rounded=0;whiteSpace=wrap;html=1;fontSize=16;fillColor=#ffe6cc;strokeColor=#d79b00;" vertex="1" parent="1">
          <mxGeometry x="317" y="-34" width="64" height="64" as="geometry" />
        </mxCell>
        <mxCell id="XYY6bWEJs2ji5yLr34Nl-108" value="" style="rounded=0;whiteSpace=wrap;html=1;fontSize=16;fillColor=#ffe6cc;strokeColor=#d79b00;" vertex="1" parent="1">
          <mxGeometry x="189" y="30" width="64" height="64" as="geometry" />
        </mxCell>
        <mxCell id="XYY6bWEJs2ji5yLr34Nl-109" value="8" style="text;html=1;align=center;verticalAlign=middle;resizable=0;points=[];autosize=1;strokeColor=none;fillColor=none;fontSize=16;" vertex="1" parent="1">
          <mxGeometry x="207.5" y="46.5" width="27" height="31" as="geometry" />
        </mxCell>
        <mxCell id="XYY6bWEJs2ji5yLr34Nl-110" value="" style="rounded=0;whiteSpace=wrap;html=1;fontSize=16;fillColor=#ffe6cc;strokeColor=#d79b00;" vertex="1" parent="1">
          <mxGeometry x="253" y="30" width="64" height="64" as="geometry" />
        </mxCell>
        <mxCell id="XYY6bWEJs2ji5yLr34Nl-111" value="3" style="rounded=0;whiteSpace=wrap;html=1;fontSize=16;fillColor=#ffe6cc;strokeColor=#d79b00;" vertex="1" parent="1">
          <mxGeometry x="317" y="30" width="64" height="64" as="geometry" />
        </mxCell>
        <mxCell id="XYY6bWEJs2ji5yLr34Nl-112" value="7" style="rounded=0;whiteSpace=wrap;html=1;fontSize=16;fillColor=#ffe6cc;strokeColor=#d79b00;" vertex="1" parent="1">
          <mxGeometry x="189" y="94" width="64" height="64" as="geometry" />
        </mxCell>
        <mxCell id="XYY6bWEJs2ji5yLr34Nl-114" value="" style="rounded=0;whiteSpace=wrap;html=1;fontSize=16;fillColor=#ffe6cc;strokeColor=#d79b00;" vertex="1" parent="1">
          <mxGeometry x="253" y="94" width="64" height="64" as="geometry" />
        </mxCell>
        <mxCell id="XYY6bWEJs2ji5yLr34Nl-115" value="" style="rounded=0;whiteSpace=wrap;html=1;fontSize=16;fillColor=#ffe6cc;strokeColor=#d79b00;" vertex="1" parent="1">
          <mxGeometry x="317" y="94" width="64" height="64" as="geometry" />
        </mxCell>
        <mxCell id="XYY6bWEJs2ji5yLr34Nl-116" value="9" style="text;html=1;align=center;verticalAlign=middle;resizable=0;points=[];autosize=1;strokeColor=none;fillColor=none;fontSize=16;" vertex="1" parent="1">
          <mxGeometry x="271.5" y="-17.5" width="27" height="31" as="geometry" />
        </mxCell>
        <mxCell id="XYY6bWEJs2ji5yLr34Nl-118" value="6" style="text;html=1;align=center;verticalAlign=middle;resizable=0;points=[];autosize=1;strokeColor=none;fillColor=none;fontSize=16;" vertex="1" parent="1">
          <mxGeometry x="271.5" y="46.5" width="27" height="31" as="geometry" />
        </mxCell>
        <mxCell id="XYY6bWEJs2ji5yLr34Nl-120" value="2" style="text;html=1;align=center;verticalAlign=middle;resizable=0;points=[];autosize=1;strokeColor=none;fillColor=none;fontSize=16;" vertex="1" parent="1">
          <mxGeometry x="271.5" y="110.5" width="27" height="31" as="geometry" />
        </mxCell>
        <mxCell id="XYY6bWEJs2ji5yLr34Nl-121" value="4" style="text;html=1;align=center;verticalAlign=middle;resizable=0;points=[];autosize=1;strokeColor=none;fillColor=none;fontSize=16;" vertex="1" parent="1">
          <mxGeometry x="335.5" y="110.5" width="27" height="31" as="geometry" />
        </mxCell>
        <mxCell id="XYY6bWEJs2ji5yLr34Nl-122" value="" style="rounded=0;whiteSpace=wrap;html=1;fontSize=16;fillColor=#ffe6cc;strokeColor=#d79b00;" vertex="1" parent="1">
          <mxGeometry x="-195" y="158" width="64" height="64" as="geometry" />
        </mxCell>
        <mxCell id="XYY6bWEJs2ji5yLr34Nl-123" value="8" style="text;html=1;align=center;verticalAlign=middle;resizable=0;points=[];autosize=1;strokeColor=none;fillColor=none;fontSize=16;" vertex="1" parent="1">
          <mxGeometry x="-176.5" y="174.5" width="27" height="31" as="geometry" />
        </mxCell>
        <mxCell id="XYY6bWEJs2ji5yLr34Nl-124" value="" style="rounded=0;whiteSpace=wrap;html=1;fontSize=16;fillColor=#ffe6cc;strokeColor=#d79b00;" vertex="1" parent="1">
          <mxGeometry x="-131" y="158" width="64" height="64" as="geometry" />
        </mxCell>
        <mxCell id="XYY6bWEJs2ji5yLr34Nl-125" value="1" style="rounded=0;whiteSpace=wrap;html=1;fontSize=16;fillColor=#ffe6cc;strokeColor=#d79b00;" vertex="1" parent="1">
          <mxGeometry x="-67" y="158" width="64" height="64" as="geometry" />
        </mxCell>
        <mxCell id="XYY6bWEJs2ji5yLr34Nl-126" value="" style="rounded=0;whiteSpace=wrap;html=1;fontSize=16;fillColor=#ffe6cc;strokeColor=#d79b00;" vertex="1" parent="1">
          <mxGeometry x="-195" y="222" width="64" height="64" as="geometry" />
        </mxCell>
        <mxCell id="XYY6bWEJs2ji5yLr34Nl-127" value="3" style="text;html=1;align=center;verticalAlign=middle;resizable=0;points=[];autosize=1;strokeColor=none;fillColor=none;fontSize=16;" vertex="1" parent="1">
          <mxGeometry x="-176.5" y="238.5" width="27" height="31" as="geometry" />
        </mxCell>
        <mxCell id="XYY6bWEJs2ji5yLr34Nl-128" value="" style="rounded=0;whiteSpace=wrap;html=1;fontSize=16;fillColor=#ffe6cc;strokeColor=#d79b00;" vertex="1" parent="1">
          <mxGeometry x="-131" y="222" width="64" height="64" as="geometry" />
        </mxCell>
        <mxCell id="XYY6bWEJs2ji5yLr34Nl-129" value="5" style="rounded=0;whiteSpace=wrap;html=1;fontSize=16;fillColor=#ffe6cc;strokeColor=#d79b00;" vertex="1" parent="1">
          <mxGeometry x="-67" y="222" width="64" height="64" as="geometry" />
        </mxCell>
        <mxCell id="XYY6bWEJs2ji5yLr34Nl-130" value="" style="rounded=0;whiteSpace=wrap;html=1;fontSize=16;fillColor=#ffe6cc;strokeColor=#d79b00;" vertex="1" parent="1">
          <mxGeometry x="-195" y="286" width="64" height="64" as="geometry" />
        </mxCell>
        <mxCell id="XYY6bWEJs2ji5yLr34Nl-131" value="2" style="text;html=1;align=center;verticalAlign=middle;resizable=0;points=[];autosize=1;strokeColor=none;fillColor=none;fontSize=16;" vertex="1" parent="1">
          <mxGeometry x="-176.5" y="302.5" width="27" height="31" as="geometry" />
        </mxCell>
        <mxCell id="XYY6bWEJs2ji5yLr34Nl-132" value="9" style="rounded=0;whiteSpace=wrap;html=1;fontSize=16;fillColor=#ffe6cc;strokeColor=#d79b00;" vertex="1" parent="1">
          <mxGeometry x="-131" y="286" width="64" height="64" as="geometry" />
        </mxCell>
        <mxCell id="XYY6bWEJs2ji5yLr34Nl-133" value="" style="rounded=0;whiteSpace=wrap;html=1;fontSize=16;fillColor=#ffe6cc;strokeColor=#d79b00;" vertex="1" parent="1">
          <mxGeometry x="-67" y="286" width="64" height="64" as="geometry" />
        </mxCell>
        <mxCell id="XYY6bWEJs2ji5yLr34Nl-134" value="7" style="text;html=1;align=center;verticalAlign=middle;resizable=0;points=[];autosize=1;strokeColor=none;fillColor=none;fontSize=16;" vertex="1" parent="1">
          <mxGeometry x="-112.5" y="174.5" width="27" height="31" as="geometry" />
        </mxCell>
        <mxCell id="XYY6bWEJs2ji5yLr34Nl-136" value="4" style="text;html=1;align=center;verticalAlign=middle;resizable=0;points=[];autosize=1;strokeColor=none;fillColor=none;fontSize=16;" vertex="1" parent="1">
          <mxGeometry x="-112.5" y="238.5" width="27" height="31" as="geometry" />
        </mxCell>
        <mxCell id="XYY6bWEJs2ji5yLr34Nl-139" value="6" style="text;html=1;align=center;verticalAlign=middle;resizable=0;points=[];autosize=1;strokeColor=none;fillColor=none;fontSize=16;" vertex="1" parent="1">
          <mxGeometry x="-48.5" y="302.5" width="27" height="31" as="geometry" />
        </mxCell>
        <mxCell id="XYY6bWEJs2ji5yLr34Nl-140" value="" style="rounded=0;whiteSpace=wrap;html=1;fontSize=16;fillColor=#ffe6cc;strokeColor=#d79b00;" vertex="1" parent="1">
          <mxGeometry x="-3" y="158" width="64" height="64" as="geometry" />
        </mxCell>
        <mxCell id="XYY6bWEJs2ji5yLr34Nl-141" value="9" style="text;html=1;align=center;verticalAlign=middle;resizable=0;points=[];autosize=1;strokeColor=none;fillColor=none;fontSize=16;" vertex="1" parent="1">
          <mxGeometry x="15.5" y="174.5" width="27" height="31" as="geometry" />
        </mxCell>
        <mxCell id="XYY6bWEJs2ji5yLr34Nl-142" value="8" style="rounded=0;whiteSpace=wrap;html=1;fontSize=16;fillColor=#ffe6cc;strokeColor=#d79b00;" vertex="1" parent="1">
          <mxGeometry x="61" y="158" width="64" height="64" as="geometry" />
        </mxCell>
        <mxCell id="XYY6bWEJs2ji5yLr34Nl-143" value="" style="rounded=0;whiteSpace=wrap;html=1;fontSize=16;fillColor=#ffe6cc;strokeColor=#d79b00;" vertex="1" parent="1">
          <mxGeometry x="125" y="158" width="64" height="64" as="geometry" />
        </mxCell>
        <mxCell id="XYY6bWEJs2ji5yLr34Nl-144" value="4" style="rounded=0;whiteSpace=wrap;html=1;fontSize=16;fillColor=#ffe6cc;strokeColor=#d79b00;" vertex="1" parent="1">
          <mxGeometry x="-3" y="222" width="64" height="64" as="geometry" />
        </mxCell>
        <mxCell id="XYY6bWEJs2ji5yLr34Nl-146" value="" style="rounded=0;whiteSpace=wrap;html=1;fontSize=16;fillColor=#ffe6cc;strokeColor=#d79b00;" vertex="1" parent="1">
          <mxGeometry x="61" y="222" width="64" height="64" as="geometry" />
        </mxCell>
        <mxCell id="XYY6bWEJs2ji5yLr34Nl-147" value="2" style="rounded=0;whiteSpace=wrap;html=1;fontSize=16;fillColor=#ffe6cc;strokeColor=#d79b00;" vertex="1" parent="1">
          <mxGeometry x="125" y="222" width="64" height="64" as="geometry" />
        </mxCell>
        <mxCell id="XYY6bWEJs2ji5yLr34Nl-148" value="1" style="rounded=0;whiteSpace=wrap;html=1;fontSize=16;fillColor=#ffe6cc;strokeColor=#d79b00;" vertex="1" parent="1">
          <mxGeometry x="-3" y="286" width="64" height="64" as="geometry" />
        </mxCell>
        <mxCell id="XYY6bWEJs2ji5yLr34Nl-150" value="" style="rounded=0;whiteSpace=wrap;html=1;fontSize=16;fillColor=#ffe6cc;strokeColor=#d79b00;" vertex="1" parent="1">
          <mxGeometry x="61" y="286" width="64" height="64" as="geometry" />
        </mxCell>
        <mxCell id="XYY6bWEJs2ji5yLr34Nl-151" value="" style="rounded=0;whiteSpace=wrap;html=1;fontSize=16;fillColor=#ffe6cc;strokeColor=#d79b00;" vertex="1" parent="1">
          <mxGeometry x="125" y="286" width="64" height="64" as="geometry" />
        </mxCell>
        <mxCell id="XYY6bWEJs2ji5yLr34Nl-153" value="6" style="text;html=1;align=center;verticalAlign=middle;resizable=0;points=[];autosize=1;strokeColor=none;fillColor=none;fontSize=16;" vertex="1" parent="1">
          <mxGeometry x="143.5" y="174.5" width="27" height="31" as="geometry" />
        </mxCell>
        <mxCell id="XYY6bWEJs2ji5yLr34Nl-154" value="5" style="text;html=1;align=center;verticalAlign=middle;resizable=0;points=[];autosize=1;strokeColor=none;fillColor=none;fontSize=16;" vertex="1" parent="1">
          <mxGeometry x="79.5" y="238.5" width="27" height="31" as="geometry" />
        </mxCell>
        <mxCell id="XYY6bWEJs2ji5yLr34Nl-156" value="7" style="text;html=1;align=center;verticalAlign=middle;resizable=0;points=[];autosize=1;strokeColor=none;fillColor=none;fontSize=16;" vertex="1" parent="1">
          <mxGeometry x="79.5" y="302.5" width="27" height="31" as="geometry" />
        </mxCell>
        <mxCell id="XYY6bWEJs2ji5yLr34Nl-157" value="3" style="text;html=1;align=center;verticalAlign=middle;resizable=0;points=[];autosize=1;strokeColor=none;fillColor=none;fontSize=16;" vertex="1" parent="1">
          <mxGeometry x="143.5" y="302.5" width="27" height="31" as="geometry" />
        </mxCell>
        <mxCell id="XYY6bWEJs2ji5yLr34Nl-158" value="4" style="rounded=0;whiteSpace=wrap;html=1;fontSize=16;fillColor=#ffe6cc;strokeColor=#d79b00;" vertex="1" parent="1">
          <mxGeometry x="189" y="158" width="64" height="64" as="geometry" />
        </mxCell>
        <mxCell id="XYY6bWEJs2ji5yLr34Nl-160" value="" style="rounded=0;whiteSpace=wrap;html=1;fontSize=16;fillColor=#ffe6cc;strokeColor=#d79b00;" vertex="1" parent="1">
          <mxGeometry x="253" y="158" width="64" height="64" as="geometry" />
        </mxCell>
        <mxCell id="XYY6bWEJs2ji5yLr34Nl-161" value="" style="rounded=0;whiteSpace=wrap;html=1;fontSize=16;fillColor=#ffe6cc;strokeColor=#d79b00;" vertex="1" parent="1">
          <mxGeometry x="317" y="158" width="64" height="64" as="geometry" />
        </mxCell>
        <mxCell id="XYY6bWEJs2ji5yLr34Nl-162" value="" style="rounded=0;whiteSpace=wrap;html=1;fontSize=16;fillColor=#ffe6cc;strokeColor=#d79b00;" vertex="1" parent="1">
          <mxGeometry x="189" y="222" width="64" height="64" as="geometry" />
        </mxCell>
        <mxCell id="XYY6bWEJs2ji5yLr34Nl-163" value="2" style="text;html=1;align=center;verticalAlign=middle;resizable=0;points=[];autosize=1;strokeColor=none;fillColor=none;fontSize=16;" vertex="1" parent="1">
          <mxGeometry x="207.5" y="238.5" width="27" height="31" as="geometry" />
        </mxCell>
        <mxCell id="XYY6bWEJs2ji5yLr34Nl-164" value="" style="rounded=0;whiteSpace=wrap;html=1;fontSize=16;fillColor=#ffe6cc;strokeColor=#d79b00;" vertex="1" parent="1">
          <mxGeometry x="253" y="222" width="64" height="64" as="geometry" />
        </mxCell>
        <mxCell id="XYY6bWEJs2ji5yLr34Nl-165" value="8" style="rounded=0;whiteSpace=wrap;html=1;fontSize=16;fillColor=#ffe6cc;strokeColor=#d79b00;" vertex="1" parent="1">
          <mxGeometry x="317" y="222" width="64" height="64" as="geometry" />
        </mxCell>
        <mxCell id="XYY6bWEJs2ji5yLr34Nl-166" value="6" style="rounded=0;whiteSpace=wrap;html=1;fontSize=16;fillColor=#ffe6cc;strokeColor=#d79b00;" vertex="1" parent="1">
          <mxGeometry x="189" y="286" width="64" height="64" as="geometry" />
        </mxCell>
        <mxCell id="XYY6bWEJs2ji5yLr34Nl-168" value="9" style="rounded=0;whiteSpace=wrap;html=1;fontSize=16;fillColor=#ffe6cc;strokeColor=#d79b00;" vertex="1" parent="1">
          <mxGeometry x="253" y="286" width="64" height="64" as="geometry" />
        </mxCell>
        <mxCell id="XYY6bWEJs2ji5yLr34Nl-169" value="" style="rounded=0;whiteSpace=wrap;html=1;fontSize=16;fillColor=#ffe6cc;strokeColor=#d79b00;" vertex="1" parent="1">
          <mxGeometry x="317" y="286" width="64" height="64" as="geometry" />
        </mxCell>
        <mxCell id="XYY6bWEJs2ji5yLr34Nl-170" value="3" style="text;html=1;align=center;verticalAlign=middle;resizable=0;points=[];autosize=1;strokeColor=none;fillColor=none;fontSize=16;" vertex="1" parent="1">
          <mxGeometry x="271.5" y="174.5" width="27" height="31" as="geometry" />
        </mxCell>
        <mxCell id="XYY6bWEJs2ji5yLr34Nl-171" value="5" style="text;html=1;align=center;verticalAlign=middle;resizable=0;points=[];autosize=1;fontSize=16;" vertex="1" parent="1">
          <mxGeometry x="335.5" y="174.5" width="27" height="31" as="geometry" />
        </mxCell>
        <mxCell id="XYY6bWEJs2ji5yLr34Nl-172" value="7" style="text;html=1;align=center;verticalAlign=middle;resizable=0;points=[];autosize=1;strokeColor=none;fillColor=none;fontSize=16;" vertex="1" parent="1">
          <mxGeometry x="271.5" y="238.5" width="27" height="31" as="geometry" />
        </mxCell>
        <mxCell id="XYY6bWEJs2ji5yLr34Nl-175" value="1" style="text;html=1;align=center;verticalAlign=middle;resizable=0;points=[];autosize=1;fontSize=16;" vertex="1" parent="1">
          <mxGeometry x="335.5" y="302.5" width="27" height="31" as="geometry" />
        </mxCell>
        <mxCell id="XYY6bWEJs2ji5yLr34Nl-183" value="" style="endArrow=none;html=1;rounded=0;fontSize=12;startSize=8;endSize=8;curved=1;fillColor=#f8cecc;strokeColor=#b85450;strokeWidth=7;entryX=1;entryY=0;entryDx=0;entryDy=0;exitX=0;exitY=1;exitDx=0;exitDy=0;" edge="1" parent="1" source="XYY6bWEJs2ji5yLr34Nl-148" target="XYY6bWEJs2ji5yLr34Nl-4">
          <mxGeometry width="50" height="50" relative="1" as="geometry">
            <mxPoint x="527" y="101" as="sourcePoint" />
            <mxPoint x="582" y="-223" as="targetPoint" />
          </mxGeometry>
        </mxCell>
        <mxCell id="XYY6bWEJs2ji5yLr34Nl-184" value="" style="endArrow=none;html=1;rounded=0;fontSize=12;startSize=8;endSize=8;curved=1;fillColor=#f8cecc;strokeColor=#b85450;strokeWidth=7;entryX=1;entryY=0;entryDx=0;entryDy=0;exitX=0;exitY=1;exitDx=0;exitDy=0;" edge="1" parent="1">
          <mxGeometry width="50" height="50" relative="1" as="geometry">
            <mxPoint x="189" y="350" as="sourcePoint" />
            <mxPoint x="189" y="-226" as="targetPoint" />
          </mxGeometry>
        </mxCell>
        <mxCell id="XYY6bWEJs2ji5yLr34Nl-185" value="" style="endArrow=none;html=1;rounded=0;fontSize=12;startSize=8;endSize=8;curved=1;fillColor=#f8cecc;strokeColor=#b85450;strokeWidth=7;entryX=1;entryY=1;entryDx=0;entryDy=0;exitX=0;exitY=0;exitDx=0;exitDy=0;" edge="1" parent="1" source="XYY6bWEJs2ji5yLr34Nl-68" target="XYY6bWEJs2ji5yLr34Nl-61">
          <mxGeometry width="50" height="50" relative="1" as="geometry">
            <mxPoint x="17" y="370" as="sourcePoint" />
            <mxPoint x="17" y="-206" as="targetPoint" />
          </mxGeometry>
        </mxCell>
        <mxCell id="XYY6bWEJs2ji5yLr34Nl-186" value="" style="endArrow=none;html=1;rounded=0;fontSize=12;startSize=8;endSize=8;curved=1;fillColor=#f8cecc;strokeColor=#b85450;strokeWidth=7;entryX=1;entryY=0;entryDx=0;entryDy=0;exitX=0;exitY=0;exitDx=0;exitDy=0;" edge="1" parent="1" source="XYY6bWEJs2ji5yLr34Nl-122" target="XYY6bWEJs2ji5yLr34Nl-161">
          <mxGeometry width="50" height="50" relative="1" as="geometry">
            <mxPoint x="27" y="380" as="sourcePoint" />
            <mxPoint x="27" y="-196" as="targetPoint" />
          </mxGeometry>
        </mxCell>
        <mxCell id="XYY6bWEJs2ji5yLr34Nl-301" value="2" style="rounded=0;whiteSpace=wrap;html=1;fontSize=16;fillColor=#d5e8d4;strokeColor=#82b366;" vertex="1" parent="1">
          <mxGeometry x="417" y="-226" width="64" height="64" as="geometry" />
        </mxCell>
        <mxCell id="XYY6bWEJs2ji5yLr34Nl-302" value="" style="rounded=0;whiteSpace=wrap;html=1;fontSize=16;fillColor=#d5e8d4;strokeColor=#82b366;" vertex="1" parent="1">
          <mxGeometry x="481" y="-226" width="64" height="64" as="geometry" />
        </mxCell>
        <mxCell id="XYY6bWEJs2ji5yLr34Nl-303" value="9" style="rounded=0;whiteSpace=wrap;html=1;fontSize=16;fillColor=#d5e8d4;strokeColor=#82b366;" vertex="1" parent="1">
          <mxGeometry x="545" y="-226" width="64" height="64" as="geometry" />
        </mxCell>
        <mxCell id="XYY6bWEJs2ji5yLr34Nl-304" value="7" style="rounded=0;whiteSpace=wrap;html=1;fontSize=16;fillColor=#d5e8d4;strokeColor=#82b366;" vertex="1" parent="1">
          <mxGeometry x="417" y="-162" width="64" height="64" as="geometry" />
        </mxCell>
        <mxCell id="XYY6bWEJs2ji5yLr34Nl-305" value="3" style="rounded=0;whiteSpace=wrap;html=1;fontSize=16;fillColor=#d5e8d4;strokeColor=#82b366;" vertex="1" parent="1">
          <mxGeometry x="481" y="-162" width="64" height="64" as="geometry" />
        </mxCell>
        <mxCell id="XYY6bWEJs2ji5yLr34Nl-306" value="5" style="rounded=0;whiteSpace=wrap;html=1;fontSize=16;fillColor=#d5e8d4;strokeColor=#82b366;" vertex="1" parent="1">
          <mxGeometry x="545" y="-162" width="64" height="64" as="geometry" />
        </mxCell>
        <mxCell id="XYY6bWEJs2ji5yLr34Nl-307" value="" style="rounded=0;whiteSpace=wrap;html=1;fontSize=16;fillColor=#d5e8d4;strokeColor=#82b366;" vertex="1" parent="1">
          <mxGeometry x="417" y="-98" width="64" height="64" as="geometry" />
        </mxCell>
        <mxCell id="XYY6bWEJs2ji5yLr34Nl-308" value="1" style="text;html=1;align=center;verticalAlign=middle;resizable=0;points=[];autosize=1;fontSize=16;" vertex="1" parent="1">
          <mxGeometry x="435.5" y="-81.5" width="27" height="31" as="geometry" />
        </mxCell>
        <mxCell id="XYY6bWEJs2ji5yLr34Nl-309" value="4" style="rounded=0;whiteSpace=wrap;html=1;fontSize=16;fillColor=#d5e8d4;strokeColor=#82b366;" vertex="1" parent="1">
          <mxGeometry x="481" y="-98" width="65" height="65" as="geometry" />
        </mxCell>
        <mxCell id="XYY6bWEJs2ji5yLr34Nl-310" value="8" style="rounded=0;whiteSpace=wrap;html=1;fontSize=16;fillColor=#d5e8d4;strokeColor=#82b366;" vertex="1" parent="1">
          <mxGeometry x="545" y="-98" width="64" height="64" as="geometry" />
        </mxCell>
        <mxCell id="XYY6bWEJs2ji5yLr34Nl-311" value="6" style="text;html=1;align=center;verticalAlign=middle;resizable=0;points=[];autosize=1;fontSize=16;" vertex="1" parent="1">
          <mxGeometry x="499.5" y="-209.5" width="27" height="31" as="geometry" />
        </mxCell>
        <mxCell id="XYY6bWEJs2ji5yLr34Nl-312" value="" style="rounded=0;whiteSpace=wrap;html=1;fontSize=16;fillColor=#d5e8d4;strokeColor=#82b366;" vertex="1" parent="1">
          <mxGeometry x="609" y="-226" width="64" height="64" as="geometry" />
        </mxCell>
        <mxCell id="XYY6bWEJs2ji5yLr34Nl-313" value="2" style="text;html=1;align=center;verticalAlign=middle;resizable=0;points=[];autosize=1;strokeColor=none;fillColor=none;fontSize=16;" vertex="1" parent="1">
          <mxGeometry x="627.5" y="-209.5" width="27" height="31" as="geometry" />
        </mxCell>
        <mxCell id="XYY6bWEJs2ji5yLr34Nl-314" value="1" style="rounded=0;whiteSpace=wrap;html=1;fontSize=16;fillColor=#d5e8d4;strokeColor=#82b366;" vertex="1" parent="1">
          <mxGeometry x="673" y="-226" width="64" height="64" as="geometry" />
        </mxCell>
        <mxCell id="XYY6bWEJs2ji5yLr34Nl-315" value="" style="rounded=0;whiteSpace=wrap;html=1;fontSize=16;fillColor=#d5e8d4;strokeColor=#82b366;" vertex="1" parent="1">
          <mxGeometry x="737" y="-226" width="64" height="64" as="geometry" />
        </mxCell>
        <mxCell id="XYY6bWEJs2ji5yLr34Nl-316" value="7" style="rounded=0;whiteSpace=wrap;html=1;fontSize=16;fillColor=#d5e8d4;strokeColor=#82b366;" vertex="1" parent="1">
          <mxGeometry x="609" y="-162" width="64" height="64" as="geometry" />
        </mxCell>
        <mxCell id="XYY6bWEJs2ji5yLr34Nl-317" value="" style="rounded=0;whiteSpace=wrap;html=1;fontSize=16;fillColor=#d5e8d4;strokeColor=#82b366;" vertex="1" parent="1">
          <mxGeometry x="673" y="-162" width="64" height="64" as="geometry" />
        </mxCell>
        <mxCell id="XYY6bWEJs2ji5yLr34Nl-318" value="5" style="rounded=0;whiteSpace=wrap;html=1;fontSize=16;fillColor=#d5e8d4;strokeColor=#82b366;" vertex="1" parent="1">
          <mxGeometry x="737" y="-162" width="64" height="64" as="geometry" />
        </mxCell>
        <mxCell id="XYY6bWEJs2ji5yLr34Nl-319" value="" style="rounded=0;whiteSpace=wrap;html=1;fontSize=16;fillColor=#d5e8d4;strokeColor=#82b366;" vertex="1" parent="1">
          <mxGeometry x="609" y="-98" width="64" height="64" as="geometry" />
        </mxCell>
        <mxCell id="XYY6bWEJs2ji5yLr34Nl-320" value="6" style="text;html=1;align=center;verticalAlign=middle;resizable=0;points=[];autosize=1;fontSize=16;" vertex="1" parent="1">
          <mxGeometry x="627.5" y="-81.5" width="27" height="31" as="geometry" />
        </mxCell>
        <mxCell id="XYY6bWEJs2ji5yLr34Nl-321" value="4" style="rounded=0;whiteSpace=wrap;html=1;fontSize=16;fillColor=#d5e8d4;strokeColor=#82b366;" vertex="1" parent="1">
          <mxGeometry x="673" y="-98" width="64" height="64" as="geometry" />
        </mxCell>
        <mxCell id="XYY6bWEJs2ji5yLr34Nl-322" value="6" style="rounded=0;whiteSpace=wrap;html=1;fontSize=16;fillColor=#d5e8d4;strokeColor=#82b366;" vertex="1" parent="1">
          <mxGeometry x="737" y="-98" width="64" height="64" as="geometry" />
        </mxCell>
        <mxCell id="XYY6bWEJs2ji5yLr34Nl-323" value="9" style="text;html=1;align=center;verticalAlign=middle;resizable=0;points=[];autosize=1;strokeColor=none;fillColor=none;fontSize=16;" vertex="1" parent="1">
          <mxGeometry x="755.5" y="-209.5" width="27" height="31" as="geometry" />
        </mxCell>
        <mxCell id="XYY6bWEJs2ji5yLr34Nl-324" value="3" style="text;html=1;align=center;verticalAlign=middle;resizable=0;points=[];autosize=1;strokeColor=none;fillColor=none;fontSize=16;" vertex="1" parent="1">
          <mxGeometry x="691.5" y="-145.5" width="27" height="31" as="geometry" />
        </mxCell>
        <mxCell id="XYY6bWEJs2ji5yLr34Nl-325" value="2" style="rounded=0;whiteSpace=wrap;html=1;fontSize=16;fillColor=#d5e8d4;strokeColor=#82b366;" vertex="1" parent="1">
          <mxGeometry x="801" y="-226" width="64" height="64" as="geometry" />
        </mxCell>
        <mxCell id="XYY6bWEJs2ji5yLr34Nl-326" value="3" style="rounded=0;whiteSpace=wrap;html=1;fontSize=16;fillColor=#d5e8d4;strokeColor=#82b366;" vertex="1" parent="1">
          <mxGeometry x="865" y="-226" width="64" height="64" as="geometry" />
        </mxCell>
        <mxCell id="XYY6bWEJs2ji5yLr34Nl-327" value="4" style="rounded=0;whiteSpace=wrap;html=1;fontSize=16;fillColor=#d5e8d4;strokeColor=#82b366;" vertex="1" parent="1">
          <mxGeometry x="929" y="-226" width="64" height="64" as="geometry" />
        </mxCell>
        <mxCell id="XYY6bWEJs2ji5yLr34Nl-328" value="6" style="rounded=0;whiteSpace=wrap;html=1;fontSize=16;fillColor=#d5e8d4;strokeColor=#82b366;" vertex="1" parent="1">
          <mxGeometry x="801" y="-162" width="64" height="64" as="geometry" />
        </mxCell>
        <mxCell id="XYY6bWEJs2ji5yLr34Nl-329" value="" style="rounded=0;whiteSpace=wrap;html=1;fontSize=16;fillColor=#d5e8d4;strokeColor=#82b366;" vertex="1" parent="1">
          <mxGeometry x="865" y="-162" width="64" height="64" as="geometry" />
        </mxCell>
        <mxCell id="XYY6bWEJs2ji5yLr34Nl-330" value="7" style="rounded=0;whiteSpace=wrap;html=1;fontSize=16;fillColor=#d5e8d4;strokeColor=#82b366;" vertex="1" parent="1">
          <mxGeometry x="929" y="-162" width="64" height="64" as="geometry" />
        </mxCell>
        <mxCell id="XYY6bWEJs2ji5yLr34Nl-331" value="8" style="rounded=0;whiteSpace=wrap;html=1;fontSize=16;fillColor=#d5e8d4;strokeColor=#82b366;" vertex="1" parent="1">
          <mxGeometry x="801" y="-98" width="64" height="64" as="geometry" />
        </mxCell>
        <mxCell id="XYY6bWEJs2ji5yLr34Nl-332" value="5" style="rounded=0;whiteSpace=wrap;html=1;fontSize=16;fillColor=#d5e8d4;strokeColor=#82b366;" vertex="1" parent="1">
          <mxGeometry x="865" y="-98" width="64" height="64" as="geometry" />
        </mxCell>
        <mxCell id="XYY6bWEJs2ji5yLr34Nl-333" value="" style="rounded=0;whiteSpace=wrap;html=1;fontSize=16;fillColor=#d5e8d4;strokeColor=#82b366;" vertex="1" parent="1">
          <mxGeometry x="929" y="-98" width="64" height="64" as="geometry" />
        </mxCell>
        <mxCell id="XYY6bWEJs2ji5yLr34Nl-334" value="1" style="text;html=1;align=center;verticalAlign=middle;resizable=0;points=[];autosize=1;strokeColor=none;fillColor=none;fontSize=16;" vertex="1" parent="1">
          <mxGeometry x="883.5" y="-145.5" width="27" height="31" as="geometry" />
        </mxCell>
        <mxCell id="XYY6bWEJs2ji5yLr34Nl-335" value="9" style="text;html=1;align=center;verticalAlign=middle;resizable=0;points=[];autosize=1;fontSize=16;" vertex="1" parent="1">
          <mxGeometry x="947.5" y="-81.5" width="27" height="31" as="geometry" />
        </mxCell>
        <mxCell id="XYY6bWEJs2ji5yLr34Nl-336" value="" style="rounded=0;whiteSpace=wrap;html=1;fontSize=16;fillColor=#d5e8d4;strokeColor=#82b366;" vertex="1" parent="1">
          <mxGeometry x="417" y="-34" width="64" height="64" as="geometry" />
        </mxCell>
        <mxCell id="XYY6bWEJs2ji5yLr34Nl-337" value="4" style="text;html=1;align=center;verticalAlign=middle;resizable=0;points=[];autosize=1;strokeColor=none;fillColor=none;fontSize=16;" vertex="1" parent="1">
          <mxGeometry x="435.5" y="-17.5" width="27" height="31" as="geometry" />
        </mxCell>
        <mxCell id="XYY6bWEJs2ji5yLr34Nl-338" value="" style="rounded=0;whiteSpace=wrap;html=1;fontSize=16;fillColor=#d5e8d4;strokeColor=#82b366;" vertex="1" parent="1">
          <mxGeometry x="481" y="-34" width="64" height="64" as="geometry" />
        </mxCell>
        <mxCell id="XYY6bWEJs2ji5yLr34Nl-339" value="1" style="rounded=0;whiteSpace=wrap;html=1;fontSize=16;fillColor=#d5e8d4;strokeColor=#82b366;" vertex="1" parent="1">
          <mxGeometry x="545" y="-34" width="64" height="64" as="geometry" />
        </mxCell>
        <mxCell id="XYY6bWEJs2ji5yLr34Nl-340" value="3" style="rounded=0;whiteSpace=wrap;html=1;fontSize=16;fillColor=#d5e8d4;strokeColor=#82b366;" vertex="1" parent="1">
          <mxGeometry x="417" y="30" width="64" height="64" as="geometry" />
        </mxCell>
        <mxCell id="XYY6bWEJs2ji5yLr34Nl-341" value="9" style="rounded=0;whiteSpace=wrap;html=1;fontSize=16;fillColor=#d5e8d4;strokeColor=#82b366;" vertex="1" parent="1">
          <mxGeometry x="481" y="30" width="64" height="64" as="geometry" />
        </mxCell>
        <mxCell id="XYY6bWEJs2ji5yLr34Nl-342" value="" style="rounded=0;whiteSpace=wrap;html=1;fontSize=16;fillColor=#d5e8d4;strokeColor=#82b366;" vertex="1" parent="1">
          <mxGeometry x="545" y="30" width="64" height="64" as="geometry" />
        </mxCell>
        <mxCell id="XYY6bWEJs2ji5yLr34Nl-343" value="7" style="rounded=0;whiteSpace=wrap;html=1;fontSize=16;fillColor=#d5e8d4;strokeColor=#82b366;" vertex="1" parent="1">
          <mxGeometry x="417" y="94" width="64" height="64" as="geometry" />
        </mxCell>
        <mxCell id="XYY6bWEJs2ji5yLr34Nl-344" value="" style="rounded=0;whiteSpace=wrap;html=1;fontSize=16;fillColor=#d5e8d4;strokeColor=#82b366;" vertex="1" parent="1">
          <mxGeometry x="481" y="94" width="64" height="64" as="geometry" />
        </mxCell>
        <mxCell id="XYY6bWEJs2ji5yLr34Nl-345" value="6" style="rounded=0;whiteSpace=wrap;html=1;fontSize=16;fillColor=#d5e8d4;strokeColor=#82b366;" vertex="1" parent="1">
          <mxGeometry x="545" y="94" width="64" height="64" as="geometry" />
        </mxCell>
        <mxCell id="XYY6bWEJs2ji5yLr34Nl-346" value="2" style="text;html=1;align=center;verticalAlign=middle;resizable=0;points=[];autosize=1;strokeColor=none;fillColor=none;fontSize=16;" vertex="1" parent="1">
          <mxGeometry x="499.5" y="-17.5" width="27" height="31" as="geometry" />
        </mxCell>
        <mxCell id="XYY6bWEJs2ji5yLr34Nl-347" value="5" style="text;html=1;align=center;verticalAlign=middle;resizable=0;points=[];autosize=1;strokeColor=none;fillColor=none;fontSize=16;" vertex="1" parent="1">
          <mxGeometry x="563.5" y="46.5" width="27" height="31" as="geometry" />
        </mxCell>
        <mxCell id="XYY6bWEJs2ji5yLr34Nl-348" value="8" style="text;html=1;align=center;verticalAlign=middle;resizable=0;points=[];autosize=1;strokeColor=none;fillColor=none;fontSize=16;" vertex="1" parent="1">
          <mxGeometry x="499.5" y="110.5" width="27" height="31" as="geometry" />
        </mxCell>
        <mxCell id="XYY6bWEJs2ji5yLr34Nl-350" value="" style="rounded=0;whiteSpace=wrap;html=1;fontSize=16;fillColor=#d5e8d4;strokeColor=#82b366;" vertex="1" parent="1">
          <mxGeometry x="609" y="-34" width="64" height="64" as="geometry" />
        </mxCell>
        <mxCell id="XYY6bWEJs2ji5yLr34Nl-351" value="5" style="text;html=1;align=center;verticalAlign=middle;resizable=0;points=[];autosize=1;strokeColor=none;fillColor=none;fontSize=16;" vertex="1" parent="1">
          <mxGeometry x="627.5" y="-17.5" width="27" height="31" as="geometry" />
        </mxCell>
        <mxCell id="XYY6bWEJs2ji5yLr34Nl-352" value="7" style="rounded=0;whiteSpace=wrap;html=1;fontSize=16;fillColor=#d5e8d4;strokeColor=#82b366;" vertex="1" parent="1">
          <mxGeometry x="673" y="-34" width="64" height="64" as="geometry" />
        </mxCell>
        <mxCell id="XYY6bWEJs2ji5yLr34Nl-353" value="6" style="rounded=0;whiteSpace=wrap;html=1;fontSize=16;fillColor=#d5e8d4;strokeColor=#82b366;" vertex="1" parent="1">
          <mxGeometry x="737" y="-34" width="64" height="64" as="geometry" />
        </mxCell>
        <mxCell id="XYY6bWEJs2ji5yLr34Nl-354" value="" style="rounded=0;whiteSpace=wrap;html=1;fontSize=16;fillColor=#d5e8d4;strokeColor=#82b366;" vertex="1" parent="1">
          <mxGeometry x="609" y="30" width="64" height="64" as="geometry" />
        </mxCell>
        <mxCell id="XYY6bWEJs2ji5yLr34Nl-355" value="3" style="text;html=1;align=center;verticalAlign=middle;resizable=0;points=[];autosize=1;strokeColor=none;fillColor=none;fontSize=16;" vertex="1" parent="1">
          <mxGeometry x="627.5" y="46.5" width="27" height="31" as="geometry" />
        </mxCell>
        <mxCell id="XYY6bWEJs2ji5yLr34Nl-356" value="4" style="rounded=0;whiteSpace=wrap;html=1;fontSize=16;fillColor=#d5e8d4;strokeColor=#82b366;" vertex="1" parent="1">
          <mxGeometry x="673" y="30" width="64" height="64" as="geometry" />
        </mxCell>
        <mxCell id="XYY6bWEJs2ji5yLr34Nl-357" value="" style="rounded=0;whiteSpace=wrap;html=1;fontSize=16;fillColor=#d5e8d4;strokeColor=#82b366;" vertex="1" parent="1">
          <mxGeometry x="737" y="30" width="64" height="64" as="geometry" />
        </mxCell>
        <mxCell id="XYY6bWEJs2ji5yLr34Nl-358" value="" style="rounded=0;whiteSpace=wrap;html=1;fontSize=16;fillColor=#d5e8d4;strokeColor=#82b366;" vertex="1" parent="1">
          <mxGeometry x="609" y="94" width="64" height="64" as="geometry" />
        </mxCell>
        <mxCell id="XYY6bWEJs2ji5yLr34Nl-359" value="1" style="text;html=1;align=center;verticalAlign=middle;resizable=0;points=[];autosize=1;strokeColor=none;fillColor=none;fontSize=16;" vertex="1" parent="1">
          <mxGeometry x="627.5" y="110.5" width="27" height="31" as="geometry" />
        </mxCell>
        <mxCell id="XYY6bWEJs2ji5yLr34Nl-360" value="9" style="rounded=0;whiteSpace=wrap;html=1;fontSize=16;fillColor=#d5e8d4;strokeColor=#82b366;" vertex="1" parent="1">
          <mxGeometry x="673" y="94" width="64" height="64" as="geometry" />
        </mxCell>
        <mxCell id="XYY6bWEJs2ji5yLr34Nl-361" value="8" style="rounded=0;whiteSpace=wrap;html=1;fontSize=16;fillColor=#d5e8d4;strokeColor=#82b366;" vertex="1" parent="1">
          <mxGeometry x="737" y="94" width="64" height="64" as="geometry" />
        </mxCell>
        <mxCell id="XYY6bWEJs2ji5yLr34Nl-362" value="2" style="text;html=1;align=center;verticalAlign=middle;resizable=0;points=[];autosize=1;strokeColor=none;fillColor=none;fontSize=16;" vertex="1" parent="1">
          <mxGeometry x="755.5" y="46.5" width="27" height="31" as="geometry" />
        </mxCell>
        <mxCell id="XYY6bWEJs2ji5yLr34Nl-363" value="1" style="rounded=0;whiteSpace=wrap;html=1;fontSize=16;fillColor=#d5e8d4;strokeColor=#82b366;" vertex="1" parent="1">
          <mxGeometry x="801" y="-34" width="64" height="64" as="geometry" />
        </mxCell>
        <mxCell id="XYY6bWEJs2ji5yLr34Nl-364" value="" style="rounded=0;whiteSpace=wrap;html=1;fontSize=16;fillColor=#d5e8d4;strokeColor=#82b366;" vertex="1" parent="1">
          <mxGeometry x="865" y="-34" width="64" height="64" as="geometry" />
        </mxCell>
        <mxCell id="XYY6bWEJs2ji5yLr34Nl-365" value="5" style="rounded=0;whiteSpace=wrap;html=1;fontSize=16;fillColor=#d5e8d4;strokeColor=#82b366;" vertex="1" parent="1">
          <mxGeometry x="929" y="-34" width="64" height="64" as="geometry" />
        </mxCell>
        <mxCell id="XYY6bWEJs2ji5yLr34Nl-366" value="" style="rounded=0;whiteSpace=wrap;html=1;fontSize=16;fillColor=#d5e8d4;strokeColor=#82b366;" vertex="1" parent="1">
          <mxGeometry x="801" y="30" width="64" height="64" as="geometry" />
        </mxCell>
        <mxCell id="XYY6bWEJs2ji5yLr34Nl-367" value="8" style="text;html=1;align=center;verticalAlign=middle;resizable=0;points=[];autosize=1;strokeColor=none;fillColor=none;fontSize=16;" vertex="1" parent="1">
          <mxGeometry x="819.5" y="46.5" width="27" height="31" as="geometry" />
        </mxCell>
        <mxCell id="XYY6bWEJs2ji5yLr34Nl-368" value="" style="rounded=0;whiteSpace=wrap;html=1;fontSize=16;fillColor=#d5e8d4;strokeColor=#82b366;" vertex="1" parent="1">
          <mxGeometry x="865" y="30" width="64" height="64" as="geometry" />
        </mxCell>
        <mxCell id="XYY6bWEJs2ji5yLr34Nl-369" value="3" style="rounded=0;whiteSpace=wrap;html=1;fontSize=16;fillColor=#d5e8d4;strokeColor=#82b366;" vertex="1" parent="1">
          <mxGeometry x="929" y="30" width="64" height="64" as="geometry" />
        </mxCell>
        <mxCell id="XYY6bWEJs2ji5yLr34Nl-370" value="7" style="rounded=0;whiteSpace=wrap;html=1;fontSize=16;fillColor=#d5e8d4;strokeColor=#82b366;" vertex="1" parent="1">
          <mxGeometry x="801" y="94" width="64" height="64" as="geometry" />
        </mxCell>
        <mxCell id="XYY6bWEJs2ji5yLr34Nl-371" value="" style="rounded=0;whiteSpace=wrap;html=1;fontSize=16;fillColor=#d5e8d4;strokeColor=#82b366;" vertex="1" parent="1">
          <mxGeometry x="865" y="94" width="64" height="64" as="geometry" />
        </mxCell>
        <mxCell id="XYY6bWEJs2ji5yLr34Nl-372" value="" style="rounded=0;whiteSpace=wrap;html=1;fontSize=16;fillColor=#d5e8d4;strokeColor=#82b366;" vertex="1" parent="1">
          <mxGeometry x="929" y="94" width="64" height="64" as="geometry" />
        </mxCell>
        <mxCell id="XYY6bWEJs2ji5yLr34Nl-373" value="9" style="text;html=1;align=center;verticalAlign=middle;resizable=0;points=[];autosize=1;strokeColor=none;fillColor=none;fontSize=16;" vertex="1" parent="1">
          <mxGeometry x="883.5" y="-17.5" width="27" height="31" as="geometry" />
        </mxCell>
        <mxCell id="XYY6bWEJs2ji5yLr34Nl-374" value="6" style="text;html=1;align=center;verticalAlign=middle;resizable=0;points=[];autosize=1;strokeColor=none;fillColor=none;fontSize=16;" vertex="1" parent="1">
          <mxGeometry x="883.5" y="46.5" width="27" height="31" as="geometry" />
        </mxCell>
        <mxCell id="XYY6bWEJs2ji5yLr34Nl-375" value="2" style="text;html=1;align=center;verticalAlign=middle;resizable=0;points=[];autosize=1;strokeColor=none;fillColor=none;fontSize=16;" vertex="1" parent="1">
          <mxGeometry x="883.5" y="110.5" width="27" height="31" as="geometry" />
        </mxCell>
        <mxCell id="XYY6bWEJs2ji5yLr34Nl-376" value="4" style="text;html=1;align=center;verticalAlign=middle;resizable=0;points=[];autosize=1;strokeColor=none;fillColor=none;fontSize=16;" vertex="1" parent="1">
          <mxGeometry x="947.5" y="110.5" width="27" height="31" as="geometry" />
        </mxCell>
        <mxCell id="XYY6bWEJs2ji5yLr34Nl-377" value="" style="rounded=0;whiteSpace=wrap;html=1;fontSize=16;fillColor=#d5e8d4;strokeColor=#82b366;" vertex="1" parent="1">
          <mxGeometry x="417" y="158" width="64" height="64" as="geometry" />
        </mxCell>
        <mxCell id="XYY6bWEJs2ji5yLr34Nl-378" value="8" style="text;html=1;align=center;verticalAlign=middle;resizable=0;points=[];autosize=1;strokeColor=none;fillColor=none;fontSize=16;" vertex="1" parent="1">
          <mxGeometry x="435.5" y="174.5" width="27" height="31" as="geometry" />
        </mxCell>
        <mxCell id="XYY6bWEJs2ji5yLr34Nl-379" value="" style="rounded=0;whiteSpace=wrap;html=1;fontSize=16;fillColor=#d5e8d4;strokeColor=#82b366;" vertex="1" parent="1">
          <mxGeometry x="481" y="158" width="64" height="64" as="geometry" />
        </mxCell>
        <mxCell id="XYY6bWEJs2ji5yLr34Nl-380" value="1" style="rounded=0;whiteSpace=wrap;html=1;fontSize=16;fillColor=#d5e8d4;strokeColor=#82b366;" vertex="1" parent="1">
          <mxGeometry x="545" y="158" width="64" height="64" as="geometry" />
        </mxCell>
        <mxCell id="XYY6bWEJs2ji5yLr34Nl-381" value="" style="rounded=0;whiteSpace=wrap;html=1;fontSize=16;fillColor=#d5e8d4;strokeColor=#82b366;" vertex="1" parent="1">
          <mxGeometry x="417" y="222" width="64" height="64" as="geometry" />
        </mxCell>
        <mxCell id="XYY6bWEJs2ji5yLr34Nl-382" value="3" style="text;html=1;align=center;verticalAlign=middle;resizable=0;points=[];autosize=1;strokeColor=none;fillColor=none;fontSize=16;" vertex="1" parent="1">
          <mxGeometry x="435.5" y="238.5" width="27" height="31" as="geometry" />
        </mxCell>
        <mxCell id="XYY6bWEJs2ji5yLr34Nl-383" value="" style="rounded=0;whiteSpace=wrap;html=1;fontSize=16;fillColor=#d5e8d4;strokeColor=#82b366;" vertex="1" parent="1">
          <mxGeometry x="481" y="222" width="64" height="64" as="geometry" />
        </mxCell>
        <mxCell id="XYY6bWEJs2ji5yLr34Nl-384" value="5" style="rounded=0;whiteSpace=wrap;html=1;fontSize=16;fillColor=#d5e8d4;strokeColor=#82b366;" vertex="1" parent="1">
          <mxGeometry x="545" y="222" width="64" height="64" as="geometry" />
        </mxCell>
        <mxCell id="XYY6bWEJs2ji5yLr34Nl-385" value="" style="rounded=0;whiteSpace=wrap;html=1;fontSize=16;fillColor=#d5e8d4;strokeColor=#82b366;" vertex="1" parent="1">
          <mxGeometry x="417" y="286" width="64" height="64" as="geometry" />
        </mxCell>
        <mxCell id="XYY6bWEJs2ji5yLr34Nl-386" value="2" style="text;html=1;align=center;verticalAlign=middle;resizable=0;points=[];autosize=1;strokeColor=none;fillColor=none;fontSize=16;" vertex="1" parent="1">
          <mxGeometry x="435.5" y="302.5" width="27" height="31" as="geometry" />
        </mxCell>
        <mxCell id="XYY6bWEJs2ji5yLr34Nl-387" value="9" style="rounded=0;whiteSpace=wrap;html=1;fontSize=16;fillColor=#d5e8d4;strokeColor=#82b366;" vertex="1" parent="1">
          <mxGeometry x="481" y="286" width="64" height="64" as="geometry" />
        </mxCell>
        <mxCell id="XYY6bWEJs2ji5yLr34Nl-388" value="" style="rounded=0;whiteSpace=wrap;html=1;fontSize=16;fillColor=#d5e8d4;strokeColor=#82b366;" vertex="1" parent="1">
          <mxGeometry x="545" y="286" width="64" height="64" as="geometry" />
        </mxCell>
        <mxCell id="XYY6bWEJs2ji5yLr34Nl-389" value="7" style="text;html=1;align=center;verticalAlign=middle;resizable=0;points=[];autosize=1;strokeColor=none;fillColor=none;fontSize=16;" vertex="1" parent="1">
          <mxGeometry x="499.5" y="174.5" width="27" height="31" as="geometry" />
        </mxCell>
        <mxCell id="XYY6bWEJs2ji5yLr34Nl-390" value="4" style="text;html=1;align=center;verticalAlign=middle;resizable=0;points=[];autosize=1;strokeColor=none;fillColor=none;fontSize=16;" vertex="1" parent="1">
          <mxGeometry x="499.5" y="238.5" width="27" height="31" as="geometry" />
        </mxCell>
        <mxCell id="XYY6bWEJs2ji5yLr34Nl-391" value="6" style="text;html=1;align=center;verticalAlign=middle;resizable=0;points=[];autosize=1;strokeColor=none;fillColor=none;fontSize=16;" vertex="1" parent="1">
          <mxGeometry x="563.5" y="302.5" width="27" height="31" as="geometry" />
        </mxCell>
        <mxCell id="XYY6bWEJs2ji5yLr34Nl-392" value="" style="rounded=0;whiteSpace=wrap;html=1;fontSize=16;fillColor=#d5e8d4;strokeColor=#82b366;" vertex="1" parent="1">
          <mxGeometry x="609" y="158" width="64" height="64" as="geometry" />
        </mxCell>
        <mxCell id="XYY6bWEJs2ji5yLr34Nl-393" value="9" style="text;html=1;align=center;verticalAlign=middle;resizable=0;points=[];autosize=1;strokeColor=none;fillColor=none;fontSize=16;" vertex="1" parent="1">
          <mxGeometry x="627.5" y="174.5" width="27" height="31" as="geometry" />
        </mxCell>
        <mxCell id="XYY6bWEJs2ji5yLr34Nl-394" value="4" style="rounded=0;whiteSpace=wrap;html=1;fontSize=16;fillColor=#d5e8d4;strokeColor=#82b366;" vertex="1" parent="1">
          <mxGeometry x="673" y="158" width="64" height="64" as="geometry" />
        </mxCell>
        <mxCell id="XYY6bWEJs2ji5yLr34Nl-395" value="" style="rounded=0;whiteSpace=wrap;html=1;fontSize=16;fillColor=#d5e8d4;strokeColor=#82b366;" vertex="1" parent="1">
          <mxGeometry x="737" y="158" width="64" height="64" as="geometry" />
        </mxCell>
        <mxCell id="XYY6bWEJs2ji5yLr34Nl-396" value="2" style="rounded=0;whiteSpace=wrap;html=1;fontSize=16;fillColor=#d5e8d4;strokeColor=#82b366;" vertex="1" parent="1">
          <mxGeometry x="609" y="222" width="64" height="64" as="geometry" />
        </mxCell>
        <mxCell id="XYY6bWEJs2ji5yLr34Nl-397" value="" style="rounded=0;whiteSpace=wrap;html=1;fontSize=16;fillColor=#d5e8d4;strokeColor=#82b366;" vertex="1" parent="1">
          <mxGeometry x="673" y="222" width="64" height="64" as="geometry" />
        </mxCell>
        <mxCell id="XYY6bWEJs2ji5yLr34Nl-398" value="8" style="rounded=0;whiteSpace=wrap;html=1;fontSize=16;fillColor=#d5e8d4;strokeColor=#82b366;" vertex="1" parent="1">
          <mxGeometry x="737" y="222" width="64" height="64" as="geometry" />
        </mxCell>
        <mxCell id="XYY6bWEJs2ji5yLr34Nl-399" value="1" style="rounded=0;whiteSpace=wrap;html=1;fontSize=16;fillColor=#d5e8d4;strokeColor=#82b366;" vertex="1" parent="1">
          <mxGeometry x="609" y="286" width="64" height="64" as="geometry" />
        </mxCell>
        <mxCell id="XYY6bWEJs2ji5yLr34Nl-400" value="" style="rounded=0;whiteSpace=wrap;html=1;fontSize=16;fillColor=#d5e8d4;strokeColor=#82b366;" vertex="1" parent="1">
          <mxGeometry x="673" y="286" width="64" height="64" as="geometry" />
        </mxCell>
        <mxCell id="XYY6bWEJs2ji5yLr34Nl-401" value="" style="rounded=0;whiteSpace=wrap;html=1;fontSize=16;fillColor=#d5e8d4;strokeColor=#82b366;" vertex="1" parent="1">
          <mxGeometry x="737" y="286" width="64" height="64" as="geometry" />
        </mxCell>
        <mxCell id="XYY6bWEJs2ji5yLr34Nl-402" value="6" style="text;html=1;align=center;verticalAlign=middle;resizable=0;points=[];autosize=1;strokeColor=none;fillColor=none;fontSize=16;" vertex="1" parent="1">
          <mxGeometry x="755.5" y="174.5" width="27" height="31" as="geometry" />
        </mxCell>
        <mxCell id="XYY6bWEJs2ji5yLr34Nl-403" value="5" style="text;html=1;align=center;verticalAlign=middle;resizable=0;points=[];autosize=1;strokeColor=none;fillColor=none;fontSize=16;" vertex="1" parent="1">
          <mxGeometry x="691.5" y="238.5" width="27" height="31" as="geometry" />
        </mxCell>
        <mxCell id="XYY6bWEJs2ji5yLr34Nl-404" value="7" style="text;html=1;align=center;verticalAlign=middle;resizable=0;points=[];autosize=1;strokeColor=none;fillColor=none;fontSize=16;" vertex="1" parent="1">
          <mxGeometry x="691.5" y="302.5" width="27" height="31" as="geometry" />
        </mxCell>
        <mxCell id="XYY6bWEJs2ji5yLr34Nl-405" value="3" style="text;html=1;align=center;verticalAlign=middle;resizable=0;points=[];autosize=1;strokeColor=none;fillColor=none;fontSize=16;" vertex="1" parent="1">
          <mxGeometry x="755.5" y="302.5" width="27" height="31" as="geometry" />
        </mxCell>
        <mxCell id="XYY6bWEJs2ji5yLr34Nl-406" value="8" style="rounded=0;whiteSpace=wrap;html=1;fontSize=16;fillColor=#d5e8d4;strokeColor=#82b366;" vertex="1" parent="1">
          <mxGeometry x="801" y="158" width="64" height="64" as="geometry" />
        </mxCell>
        <mxCell id="XYY6bWEJs2ji5yLr34Nl-407" value="" style="rounded=0;whiteSpace=wrap;html=1;fontSize=16;fillColor=#d5e8d4;strokeColor=#82b366;" vertex="1" parent="1">
          <mxGeometry x="865" y="158" width="64" height="64" as="geometry" />
        </mxCell>
        <mxCell id="XYY6bWEJs2ji5yLr34Nl-408" value="" style="rounded=0;whiteSpace=wrap;html=1;fontSize=16;fillColor=#d5e8d4;strokeColor=#82b366;" vertex="1" parent="1">
          <mxGeometry x="929" y="158" width="64" height="64" as="geometry" />
        </mxCell>
        <mxCell id="XYY6bWEJs2ji5yLr34Nl-409" value="" style="rounded=0;whiteSpace=wrap;html=1;fontSize=16;fillColor=#d5e8d4;strokeColor=#82b366;" vertex="1" parent="1">
          <mxGeometry x="801" y="222" width="64" height="64" as="geometry" />
        </mxCell>
        <mxCell id="XYY6bWEJs2ji5yLr34Nl-410" value="2" style="text;html=1;align=center;verticalAlign=middle;resizable=0;points=[];autosize=1;strokeColor=none;fillColor=none;fontSize=16;" vertex="1" parent="1">
          <mxGeometry x="819.5" y="238.5" width="27" height="31" as="geometry" />
        </mxCell>
        <mxCell id="XYY6bWEJs2ji5yLr34Nl-411" value="" style="rounded=0;whiteSpace=wrap;html=1;fontSize=16;fillColor=#d5e8d4;strokeColor=#82b366;" vertex="1" parent="1">
          <mxGeometry x="865" y="222" width="64" height="64" as="geometry" />
        </mxCell>
        <mxCell id="XYY6bWEJs2ji5yLr34Nl-412" value="9" style="rounded=0;whiteSpace=wrap;html=1;fontSize=16;fillColor=#d5e8d4;strokeColor=#82b366;" vertex="1" parent="1">
          <mxGeometry x="929" y="222" width="64" height="64" as="geometry" />
        </mxCell>
        <mxCell id="XYY6bWEJs2ji5yLr34Nl-413" value="4" style="rounded=0;whiteSpace=wrap;html=1;fontSize=16;fillColor=#d5e8d4;strokeColor=#82b366;" vertex="1" parent="1">
          <mxGeometry x="801" y="286" width="64" height="64" as="geometry" />
        </mxCell>
        <mxCell id="XYY6bWEJs2ji5yLr34Nl-414" value="6" style="rounded=0;whiteSpace=wrap;html=1;fontSize=16;fillColor=#d5e8d4;strokeColor=#82b366;" vertex="1" parent="1">
          <mxGeometry x="865" y="286" width="64" height="64" as="geometry" />
        </mxCell>
        <mxCell id="XYY6bWEJs2ji5yLr34Nl-415" value="" style="rounded=0;whiteSpace=wrap;html=1;fontSize=16;fillColor=#d5e8d4;strokeColor=#82b366;" vertex="1" parent="1">
          <mxGeometry x="929" y="286" width="64" height="64" as="geometry" />
        </mxCell>
        <mxCell id="XYY6bWEJs2ji5yLr34Nl-416" value="3" style="text;html=1;align=center;verticalAlign=middle;resizable=0;points=[];autosize=1;strokeColor=none;fillColor=none;fontSize=16;" vertex="1" parent="1">
          <mxGeometry x="883.5" y="174.5" width="27" height="31" as="geometry" />
        </mxCell>
        <mxCell id="XYY6bWEJs2ji5yLr34Nl-417" value="5" style="text;html=1;align=center;verticalAlign=middle;resizable=0;points=[];autosize=1;fontSize=16;" vertex="1" parent="1">
          <mxGeometry x="947.5" y="174.5" width="27" height="31" as="geometry" />
        </mxCell>
        <mxCell id="XYY6bWEJs2ji5yLr34Nl-418" value="7" style="text;html=1;align=center;verticalAlign=middle;resizable=0;points=[];autosize=1;strokeColor=none;fillColor=none;fontSize=16;" vertex="1" parent="1">
          <mxGeometry x="883.5" y="238.5" width="27" height="31" as="geometry" />
        </mxCell>
        <mxCell id="XYY6bWEJs2ji5yLr34Nl-419" value="1" style="text;html=1;align=center;verticalAlign=middle;resizable=0;points=[];autosize=1;fontSize=16;" vertex="1" parent="1">
          <mxGeometry x="947.5" y="302.5" width="27" height="31" as="geometry" />
        </mxCell>
        <mxCell id="XYY6bWEJs2ji5yLr34Nl-420" value="" style="endArrow=none;html=1;rounded=0;fontSize=12;startSize=8;endSize=8;curved=1;fillColor=#f8cecc;strokeColor=#b85450;strokeWidth=7;entryX=1;entryY=0;entryDx=0;entryDy=0;exitX=0;exitY=1;exitDx=0;exitDy=0;" edge="1" parent="1" source="XYY6bWEJs2ji5yLr34Nl-399" target="XYY6bWEJs2ji5yLr34Nl-303">
          <mxGeometry width="50" height="50" relative="1" as="geometry">
            <mxPoint x="1139" y="101" as="sourcePoint" />
            <mxPoint x="1194" y="-223" as="targetPoint" />
          </mxGeometry>
        </mxCell>
        <mxCell id="XYY6bWEJs2ji5yLr34Nl-421" value="" style="endArrow=none;html=1;rounded=0;fontSize=12;startSize=8;endSize=8;curved=1;fillColor=#f8cecc;strokeColor=#b85450;strokeWidth=7;entryX=1;entryY=0;entryDx=0;entryDy=0;exitX=0;exitY=1;exitDx=0;exitDy=0;" edge="1" parent="1">
          <mxGeometry width="50" height="50" relative="1" as="geometry">
            <mxPoint x="801" y="350" as="sourcePoint" />
            <mxPoint x="801" y="-226" as="targetPoint" />
          </mxGeometry>
        </mxCell>
        <mxCell id="XYY6bWEJs2ji5yLr34Nl-422" value="" style="endArrow=none;html=1;rounded=0;fontSize=12;startSize=8;endSize=8;curved=1;fillColor=#f8cecc;strokeColor=#b85450;strokeWidth=7;entryX=1;entryY=1;entryDx=0;entryDy=0;exitX=0;exitY=0;exitDx=0;exitDy=0;" edge="1" parent="1" source="XYY6bWEJs2ji5yLr34Nl-336" target="XYY6bWEJs2ji5yLr34Nl-333">
          <mxGeometry width="50" height="50" relative="1" as="geometry">
            <mxPoint x="629" y="370" as="sourcePoint" />
            <mxPoint x="629" y="-206" as="targetPoint" />
          </mxGeometry>
        </mxCell>
        <mxCell id="XYY6bWEJs2ji5yLr34Nl-423" value="" style="endArrow=none;html=1;rounded=0;fontSize=12;startSize=8;endSize=8;curved=1;fillColor=#f8cecc;strokeColor=#b85450;strokeWidth=7;entryX=1;entryY=0;entryDx=0;entryDy=0;exitX=0;exitY=0;exitDx=0;exitDy=0;" edge="1" parent="1" source="XYY6bWEJs2ji5yLr34Nl-377" target="XYY6bWEJs2ji5yLr34Nl-408">
          <mxGeometry width="50" height="50" relative="1" as="geometry">
            <mxPoint x="639" y="380" as="sourcePoint" />
            <mxPoint x="639" y="-196" as="targetPoint" />
          </mxGeometry>
        </mxCell>
        <mxCell id="XYY6bWEJs2ji5yLr34Nl-424" value="" style="shape=flexArrow;endArrow=classic;html=1;rounded=0;fontSize=12;startSize=8;endSize=8;curved=1;" edge="1" parent="1">
          <mxGeometry width="50" height="50" relative="1" as="geometry">
            <mxPoint x="400" y="350" as="sourcePoint" />
            <mxPoint x="400" y="411" as="targetPoint" />
          </mxGeometry>
        </mxCell>
        <mxCell id="XYY6bWEJs2ji5yLr34Nl-425" value="9" style="rounded=0;whiteSpace=wrap;html=1;fontSize=16;fillColor=#ffe6cc;strokeColor=#d79b00;" vertex="1" parent="1">
          <mxGeometry x="-195" y="425" width="64" height="64" as="geometry" />
        </mxCell>
        <mxCell id="XYY6bWEJs2ji5yLr34Nl-426" value="" style="rounded=0;whiteSpace=wrap;html=1;fontSize=16;fillColor=#ffe6cc;strokeColor=#d79b00;" vertex="1" parent="1">
          <mxGeometry x="-131" y="425" width="64" height="64" as="geometry" />
        </mxCell>
        <mxCell id="XYY6bWEJs2ji5yLr34Nl-427" value="3" style="rounded=0;whiteSpace=wrap;html=1;fontSize=16;fillColor=#ffe6cc;strokeColor=#d79b00;" vertex="1" parent="1">
          <mxGeometry x="-67" y="425" width="64" height="64" as="geometry" />
        </mxCell>
        <mxCell id="XYY6bWEJs2ji5yLr34Nl-428" value="5" style="rounded=0;whiteSpace=wrap;html=1;fontSize=16;fillColor=#ffe6cc;strokeColor=#d79b00;" vertex="1" parent="1">
          <mxGeometry x="-195" y="489" width="64" height="64" as="geometry" />
        </mxCell>
        <mxCell id="XYY6bWEJs2ji5yLr34Nl-429" value="2" style="rounded=0;whiteSpace=wrap;html=1;fontSize=16;fillColor=#ffe6cc;strokeColor=#d79b00;" vertex="1" parent="1">
          <mxGeometry x="-131" y="489" width="64" height="64" as="geometry" />
        </mxCell>
        <mxCell id="XYY6bWEJs2ji5yLr34Nl-430" value="7" style="rounded=0;whiteSpace=wrap;html=1;fontSize=16;fillColor=#ffe6cc;strokeColor=#d79b00;" vertex="1" parent="1">
          <mxGeometry x="-67" y="489" width="64" height="64" as="geometry" />
        </mxCell>
        <mxCell id="XYY6bWEJs2ji5yLr34Nl-431" value="" style="rounded=0;whiteSpace=wrap;html=1;fontSize=16;fillColor=#ffe6cc;strokeColor=#d79b00;" vertex="1" parent="1">
          <mxGeometry x="-195" y="553" width="64" height="64" as="geometry" />
        </mxCell>
        <mxCell id="XYY6bWEJs2ji5yLr34Nl-432" value="1" style="text;html=1;align=center;verticalAlign=middle;resizable=0;points=[];autosize=1;fontSize=16;" vertex="1" parent="1">
          <mxGeometry x="-176.5" y="569.5" width="27" height="31" as="geometry" />
        </mxCell>
        <mxCell id="XYY6bWEJs2ji5yLr34Nl-433" value="8" style="rounded=0;whiteSpace=wrap;html=1;fontSize=16;fillColor=#ffe6cc;strokeColor=#d79b00;" vertex="1" parent="1">
          <mxGeometry x="-131" y="553" width="65" height="65" as="geometry" />
        </mxCell>
        <mxCell id="XYY6bWEJs2ji5yLr34Nl-434" value="4" style="rounded=0;whiteSpace=wrap;html=1;fontSize=16;fillColor=#ffe6cc;strokeColor=#d79b00;" vertex="1" parent="1">
          <mxGeometry x="-67" y="553" width="64" height="64" as="geometry" />
        </mxCell>
        <mxCell id="XYY6bWEJs2ji5yLr34Nl-435" value="6" style="text;html=1;align=center;verticalAlign=middle;resizable=0;points=[];autosize=1;fontSize=16;" vertex="1" parent="1">
          <mxGeometry x="-112.5" y="441.5" width="27" height="31" as="geometry" />
        </mxCell>
        <mxCell id="XYY6bWEJs2ji5yLr34Nl-436" value="" style="rounded=0;whiteSpace=wrap;html=1;fontSize=16;fillColor=#ffe6cc;strokeColor=#d79b00;" vertex="1" parent="1">
          <mxGeometry x="-3" y="425" width="64" height="64" as="geometry" />
        </mxCell>
        <mxCell id="XYY6bWEJs2ji5yLr34Nl-437" value="2" style="text;html=1;align=center;verticalAlign=middle;resizable=0;points=[];autosize=1;strokeColor=none;fillColor=none;fontSize=16;" vertex="1" parent="1">
          <mxGeometry x="15.5" y="441.5" width="27" height="31" as="geometry" />
        </mxCell>
        <mxCell id="XYY6bWEJs2ji5yLr34Nl-438" value="1" style="rounded=0;whiteSpace=wrap;html=1;fontSize=16;fillColor=#ffe6cc;strokeColor=#d79b00;" vertex="1" parent="1">
          <mxGeometry x="61" y="425" width="64" height="64" as="geometry" />
        </mxCell>
        <mxCell id="XYY6bWEJs2ji5yLr34Nl-439" value="" style="rounded=0;whiteSpace=wrap;html=1;fontSize=16;fillColor=#ffe6cc;strokeColor=#d79b00;" vertex="1" parent="1">
          <mxGeometry x="125" y="425" width="64" height="64" as="geometry" />
        </mxCell>
        <mxCell id="XYY6bWEJs2ji5yLr34Nl-440" value="8" style="rounded=0;whiteSpace=wrap;html=1;fontSize=16;fillColor=#ffe6cc;strokeColor=#d79b00;" vertex="1" parent="1">
          <mxGeometry x="-3" y="489" width="64" height="64" as="geometry" />
        </mxCell>
        <mxCell id="XYY6bWEJs2ji5yLr34Nl-441" value="" style="rounded=0;whiteSpace=wrap;html=1;fontSize=16;fillColor=#ffe6cc;strokeColor=#d79b00;" vertex="1" parent="1">
          <mxGeometry x="61" y="489" width="64" height="64" as="geometry" />
        </mxCell>
        <mxCell id="XYY6bWEJs2ji5yLr34Nl-442" value="5" style="rounded=0;whiteSpace=wrap;html=1;fontSize=16;fillColor=#ffe6cc;strokeColor=#d79b00;" vertex="1" parent="1">
          <mxGeometry x="125" y="489" width="64" height="64" as="geometry" />
        </mxCell>
        <mxCell id="XYY6bWEJs2ji5yLr34Nl-443" value="" style="rounded=0;whiteSpace=wrap;html=1;fontSize=16;fillColor=#ffe6cc;strokeColor=#d79b00;" vertex="1" parent="1">
          <mxGeometry x="-3" y="553" width="64" height="64" as="geometry" />
        </mxCell>
        <mxCell id="XYY6bWEJs2ji5yLr34Nl-444" value="6" style="text;html=1;align=center;verticalAlign=middle;resizable=0;points=[];autosize=1;fontSize=16;" vertex="1" parent="1">
          <mxGeometry x="15.5" y="569.5" width="27" height="31" as="geometry" />
        </mxCell>
        <mxCell id="XYY6bWEJs2ji5yLr34Nl-445" value="4" style="rounded=0;whiteSpace=wrap;html=1;fontSize=16;fillColor=#ffe6cc;strokeColor=#d79b00;" vertex="1" parent="1">
          <mxGeometry x="61" y="553" width="64" height="64" as="geometry" />
        </mxCell>
        <mxCell id="XYY6bWEJs2ji5yLr34Nl-446" value="7" style="rounded=0;whiteSpace=wrap;html=1;fontSize=16;fillColor=#ffe6cc;strokeColor=#d79b00;" vertex="1" parent="1">
          <mxGeometry x="125" y="553" width="64" height="64" as="geometry" />
        </mxCell>
        <mxCell id="XYY6bWEJs2ji5yLr34Nl-447" value="9" style="text;html=1;align=center;verticalAlign=middle;resizable=0;points=[];autosize=1;strokeColor=none;fillColor=none;fontSize=16;" vertex="1" parent="1">
          <mxGeometry x="143.5" y="441.5" width="27" height="31" as="geometry" />
        </mxCell>
        <mxCell id="XYY6bWEJs2ji5yLr34Nl-448" value="3" style="text;html=1;align=center;verticalAlign=middle;resizable=0;points=[];autosize=1;strokeColor=none;fillColor=none;fontSize=16;" vertex="1" parent="1">
          <mxGeometry x="79.5" y="505.5" width="27" height="31" as="geometry" />
        </mxCell>
        <mxCell id="XYY6bWEJs2ji5yLr34Nl-449" value="2" style="rounded=0;whiteSpace=wrap;html=1;fontSize=16;fillColor=#ffe6cc;strokeColor=#d79b00;" vertex="1" parent="1">
          <mxGeometry x="189" y="425" width="64" height="64" as="geometry" />
        </mxCell>
        <mxCell id="XYY6bWEJs2ji5yLr34Nl-450" value="4" style="rounded=0;whiteSpace=wrap;html=1;fontSize=16;fillColor=#ffe6cc;strokeColor=#d79b00;" vertex="1" parent="1">
          <mxGeometry x="253" y="425" width="64" height="64" as="geometry" />
        </mxCell>
        <mxCell id="XYY6bWEJs2ji5yLr34Nl-451" value="6" style="rounded=0;whiteSpace=wrap;html=1;fontSize=16;fillColor=#ffe6cc;strokeColor=#d79b00;" vertex="1" parent="1">
          <mxGeometry x="317" y="425" width="64" height="64" as="geometry" />
        </mxCell>
        <mxCell id="XYY6bWEJs2ji5yLr34Nl-452" value="7" style="rounded=0;whiteSpace=wrap;html=1;fontSize=16;fillColor=#ffe6cc;strokeColor=#d79b00;" vertex="1" parent="1">
          <mxGeometry x="189" y="489" width="64" height="64" as="geometry" />
        </mxCell>
        <mxCell id="XYY6bWEJs2ji5yLr34Nl-453" value="" style="rounded=0;whiteSpace=wrap;html=1;fontSize=16;fillColor=#ffe6cc;strokeColor=#d79b00;" vertex="1" parent="1">
          <mxGeometry x="253" y="489" width="64" height="64" as="geometry" />
        </mxCell>
        <mxCell id="XYY6bWEJs2ji5yLr34Nl-454" value="3" style="rounded=0;whiteSpace=wrap;html=1;fontSize=16;fillColor=#ffe6cc;strokeColor=#d79b00;" vertex="1" parent="1">
          <mxGeometry x="317" y="489" width="64" height="64" as="geometry" />
        </mxCell>
        <mxCell id="XYY6bWEJs2ji5yLr34Nl-455" value="8" style="rounded=0;whiteSpace=wrap;html=1;fontSize=16;fillColor=#ffe6cc;strokeColor=#d79b00;" vertex="1" parent="1">
          <mxGeometry x="189" y="553" width="64" height="64" as="geometry" />
        </mxCell>
        <mxCell id="XYY6bWEJs2ji5yLr34Nl-456" value="5" style="rounded=0;whiteSpace=wrap;html=1;fontSize=16;fillColor=#ffe6cc;strokeColor=#d79b00;" vertex="1" parent="1">
          <mxGeometry x="253" y="553" width="64" height="64" as="geometry" />
        </mxCell>
        <mxCell id="XYY6bWEJs2ji5yLr34Nl-457" value="" style="rounded=0;whiteSpace=wrap;html=1;fontSize=16;fillColor=#ffe6cc;strokeColor=#d79b00;" vertex="1" parent="1">
          <mxGeometry x="317" y="553" width="64" height="64" as="geometry" />
        </mxCell>
        <mxCell id="XYY6bWEJs2ji5yLr34Nl-458" value="1" style="text;html=1;align=center;verticalAlign=middle;resizable=0;points=[];autosize=1;strokeColor=none;fillColor=none;fontSize=16;" vertex="1" parent="1">
          <mxGeometry x="271.5" y="505.5" width="27" height="31" as="geometry" />
        </mxCell>
        <mxCell id="XYY6bWEJs2ji5yLr34Nl-459" value="9" style="text;html=1;align=center;verticalAlign=middle;resizable=0;points=[];autosize=1;fontSize=16;" vertex="1" parent="1">
          <mxGeometry x="335.5" y="569.5" width="27" height="31" as="geometry" />
        </mxCell>
        <mxCell id="XYY6bWEJs2ji5yLr34Nl-460" value="" style="endArrow=none;html=1;rounded=0;fontSize=12;startSize=8;endSize=8;curved=1;fillColor=#f8cecc;strokeColor=#b85450;strokeWidth=7;entryX=1;entryY=1;entryDx=0;entryDy=0;exitX=0;exitY=0;exitDx=0;exitDy=0;" edge="1" parent="1" target="XYY6bWEJs2ji5yLr34Nl-457">
          <mxGeometry width="50" height="50" relative="1" as="geometry">
            <mxPoint x="-195" y="617" as="sourcePoint" />
            <mxPoint x="17" y="445" as="targetPoint" />
          </mxGeometry>
        </mxCell>
        <mxCell id="XYY6bWEJs2ji5yLr34Nl-461" value="" style="rounded=0;whiteSpace=wrap;html=1;fontSize=16;fillColor=#d5e8d4;strokeColor=#82b366;" vertex="1" parent="1">
          <mxGeometry x="-195" y="617" width="64" height="64" as="geometry" />
        </mxCell>
        <mxCell id="XYY6bWEJs2ji5yLr34Nl-462" value="4" style="text;html=1;align=center;verticalAlign=middle;resizable=0;points=[];autosize=1;strokeColor=none;fillColor=none;fontSize=16;" vertex="1" parent="1">
          <mxGeometry x="-176.5" y="633.5" width="27" height="31" as="geometry" />
        </mxCell>
        <mxCell id="XYY6bWEJs2ji5yLr34Nl-463" value="" style="rounded=0;whiteSpace=wrap;html=1;fontSize=16;fillColor=#d5e8d4;strokeColor=#82b366;" vertex="1" parent="1">
          <mxGeometry x="-131" y="617" width="64" height="64" as="geometry" />
        </mxCell>
        <mxCell id="XYY6bWEJs2ji5yLr34Nl-464" value="1" style="rounded=0;whiteSpace=wrap;html=1;fontSize=16;fillColor=#d5e8d4;strokeColor=#82b366;" vertex="1" parent="1">
          <mxGeometry x="-67" y="617" width="64" height="64" as="geometry" />
        </mxCell>
        <mxCell id="XYY6bWEJs2ji5yLr34Nl-465" value="3" style="rounded=0;whiteSpace=wrap;html=1;fontSize=16;fillColor=#d5e8d4;strokeColor=#82b366;" vertex="1" parent="1">
          <mxGeometry x="-195" y="681" width="64" height="64" as="geometry" />
        </mxCell>
        <mxCell id="XYY6bWEJs2ji5yLr34Nl-466" value="9" style="rounded=0;whiteSpace=wrap;html=1;fontSize=16;fillColor=#d5e8d4;strokeColor=#82b366;" vertex="1" parent="1">
          <mxGeometry x="-131" y="681" width="64" height="64" as="geometry" />
        </mxCell>
        <mxCell id="XYY6bWEJs2ji5yLr34Nl-467" value="" style="rounded=0;whiteSpace=wrap;html=1;fontSize=16;fillColor=#d5e8d4;strokeColor=#82b366;" vertex="1" parent="1">
          <mxGeometry x="-67" y="681" width="64" height="64" as="geometry" />
        </mxCell>
        <mxCell id="XYY6bWEJs2ji5yLr34Nl-468" value="7" style="rounded=0;whiteSpace=wrap;html=1;fontSize=16;fillColor=#d5e8d4;strokeColor=#82b366;" vertex="1" parent="1">
          <mxGeometry x="-195" y="745" width="64" height="64" as="geometry" />
        </mxCell>
        <mxCell id="XYY6bWEJs2ji5yLr34Nl-469" value="" style="rounded=0;whiteSpace=wrap;html=1;fontSize=16;fillColor=#d5e8d4;strokeColor=#82b366;" vertex="1" parent="1">
          <mxGeometry x="-131" y="745" width="64" height="64" as="geometry" />
        </mxCell>
        <mxCell id="XYY6bWEJs2ji5yLr34Nl-470" value="6" style="rounded=0;whiteSpace=wrap;html=1;fontSize=16;fillColor=#d5e8d4;strokeColor=#82b366;" vertex="1" parent="1">
          <mxGeometry x="-67" y="745" width="64" height="64" as="geometry" />
        </mxCell>
        <mxCell id="XYY6bWEJs2ji5yLr34Nl-471" value="2" style="text;html=1;align=center;verticalAlign=middle;resizable=0;points=[];autosize=1;strokeColor=none;fillColor=none;fontSize=16;" vertex="1" parent="1">
          <mxGeometry x="-112.5" y="633.5" width="27" height="31" as="geometry" />
        </mxCell>
        <mxCell id="XYY6bWEJs2ji5yLr34Nl-472" value="5" style="text;html=1;align=center;verticalAlign=middle;resizable=0;points=[];autosize=1;strokeColor=none;fillColor=none;fontSize=16;" vertex="1" parent="1">
          <mxGeometry x="-48.5" y="697.5" width="27" height="31" as="geometry" />
        </mxCell>
        <mxCell id="XYY6bWEJs2ji5yLr34Nl-473" value="8" style="text;html=1;align=center;verticalAlign=middle;resizable=0;points=[];autosize=1;strokeColor=none;fillColor=none;fontSize=16;" vertex="1" parent="1">
          <mxGeometry x="-112.5" y="761.5" width="27" height="31" as="geometry" />
        </mxCell>
        <mxCell id="XYY6bWEJs2ji5yLr34Nl-474" value="" style="rounded=0;whiteSpace=wrap;html=1;fontSize=16;fillColor=#d5e8d4;strokeColor=#82b366;" vertex="1" parent="1">
          <mxGeometry x="-3" y="617" width="64" height="64" as="geometry" />
        </mxCell>
        <mxCell id="XYY6bWEJs2ji5yLr34Nl-475" value="5" style="text;html=1;align=center;verticalAlign=middle;resizable=0;points=[];autosize=1;strokeColor=none;fillColor=none;fontSize=16;" vertex="1" parent="1">
          <mxGeometry x="15.5" y="633.5" width="27" height="31" as="geometry" />
        </mxCell>
        <mxCell id="XYY6bWEJs2ji5yLr34Nl-476" value="7" style="rounded=0;whiteSpace=wrap;html=1;fontSize=16;fillColor=#d5e8d4;strokeColor=#82b366;" vertex="1" parent="1">
          <mxGeometry x="61" y="617" width="64" height="64" as="geometry" />
        </mxCell>
        <mxCell id="XYY6bWEJs2ji5yLr34Nl-477" value="6" style="rounded=0;whiteSpace=wrap;html=1;fontSize=16;fillColor=#d5e8d4;strokeColor=#82b366;" vertex="1" parent="1">
          <mxGeometry x="125" y="617" width="64" height="64" as="geometry" />
        </mxCell>
        <mxCell id="XYY6bWEJs2ji5yLr34Nl-478" value="" style="rounded=0;whiteSpace=wrap;html=1;fontSize=16;fillColor=#d5e8d4;strokeColor=#82b366;" vertex="1" parent="1">
          <mxGeometry x="-3" y="681" width="64" height="64" as="geometry" />
        </mxCell>
        <mxCell id="XYY6bWEJs2ji5yLr34Nl-479" value="3" style="text;html=1;align=center;verticalAlign=middle;resizable=0;points=[];autosize=1;strokeColor=none;fillColor=none;fontSize=16;" vertex="1" parent="1">
          <mxGeometry x="15.5" y="697.5" width="27" height="31" as="geometry" />
        </mxCell>
        <mxCell id="XYY6bWEJs2ji5yLr34Nl-480" value="4" style="rounded=0;whiteSpace=wrap;html=1;fontSize=16;fillColor=#d5e8d4;strokeColor=#82b366;" vertex="1" parent="1">
          <mxGeometry x="61" y="681" width="64" height="64" as="geometry" />
        </mxCell>
        <mxCell id="XYY6bWEJs2ji5yLr34Nl-481" value="" style="rounded=0;whiteSpace=wrap;html=1;fontSize=16;fillColor=#d5e8d4;strokeColor=#82b366;" vertex="1" parent="1">
          <mxGeometry x="125" y="681" width="64" height="64" as="geometry" />
        </mxCell>
        <mxCell id="XYY6bWEJs2ji5yLr34Nl-482" value="" style="rounded=0;whiteSpace=wrap;html=1;fontSize=16;fillColor=#d5e8d4;strokeColor=#82b366;" vertex="1" parent="1">
          <mxGeometry x="-3" y="745" width="64" height="64" as="geometry" />
        </mxCell>
        <mxCell id="XYY6bWEJs2ji5yLr34Nl-483" value="1" style="text;html=1;align=center;verticalAlign=middle;resizable=0;points=[];autosize=1;strokeColor=none;fillColor=none;fontSize=16;" vertex="1" parent="1">
          <mxGeometry x="15.5" y="761.5" width="27" height="31" as="geometry" />
        </mxCell>
        <mxCell id="XYY6bWEJs2ji5yLr34Nl-484" value="9" style="rounded=0;whiteSpace=wrap;html=1;fontSize=16;fillColor=#d5e8d4;strokeColor=#82b366;" vertex="1" parent="1">
          <mxGeometry x="61" y="745" width="64" height="64" as="geometry" />
        </mxCell>
        <mxCell id="XYY6bWEJs2ji5yLr34Nl-485" value="8" style="rounded=0;whiteSpace=wrap;html=1;fontSize=16;fillColor=#d5e8d4;strokeColor=#82b366;" vertex="1" parent="1">
          <mxGeometry x="125" y="745" width="64" height="64" as="geometry" />
        </mxCell>
        <mxCell id="XYY6bWEJs2ji5yLr34Nl-486" value="2" style="text;html=1;align=center;verticalAlign=middle;resizable=0;points=[];autosize=1;strokeColor=none;fillColor=none;fontSize=16;" vertex="1" parent="1">
          <mxGeometry x="143.5" y="697.5" width="27" height="31" as="geometry" />
        </mxCell>
        <mxCell id="XYY6bWEJs2ji5yLr34Nl-487" value="1" style="rounded=0;whiteSpace=wrap;html=1;fontSize=16;fillColor=#d5e8d4;strokeColor=#82b366;" vertex="1" parent="1">
          <mxGeometry x="189" y="617" width="64" height="64" as="geometry" />
        </mxCell>
        <mxCell id="XYY6bWEJs2ji5yLr34Nl-488" value="" style="rounded=0;whiteSpace=wrap;html=1;fontSize=16;fillColor=#d5e8d4;strokeColor=#82b366;" vertex="1" parent="1">
          <mxGeometry x="253" y="617" width="64" height="64" as="geometry" />
        </mxCell>
        <mxCell id="XYY6bWEJs2ji5yLr34Nl-489" value="5" style="rounded=0;whiteSpace=wrap;html=1;fontSize=16;fillColor=#d5e8d4;strokeColor=#82b366;" vertex="1" parent="1">
          <mxGeometry x="317" y="617" width="64" height="64" as="geometry" />
        </mxCell>
        <mxCell id="XYY6bWEJs2ji5yLr34Nl-490" value="" style="rounded=0;whiteSpace=wrap;html=1;fontSize=16;fillColor=#d5e8d4;strokeColor=#82b366;" vertex="1" parent="1">
          <mxGeometry x="189" y="681" width="64" height="64" as="geometry" />
        </mxCell>
        <mxCell id="XYY6bWEJs2ji5yLr34Nl-491" value="8" style="text;html=1;align=center;verticalAlign=middle;resizable=0;points=[];autosize=1;strokeColor=none;fillColor=none;fontSize=16;" vertex="1" parent="1">
          <mxGeometry x="207.5" y="697.5" width="27" height="31" as="geometry" />
        </mxCell>
        <mxCell id="XYY6bWEJs2ji5yLr34Nl-492" value="" style="rounded=0;whiteSpace=wrap;html=1;fontSize=16;fillColor=#d5e8d4;strokeColor=#82b366;" vertex="1" parent="1">
          <mxGeometry x="253" y="681" width="64" height="64" as="geometry" />
        </mxCell>
        <mxCell id="XYY6bWEJs2ji5yLr34Nl-493" value="3" style="rounded=0;whiteSpace=wrap;html=1;fontSize=16;fillColor=#d5e8d4;strokeColor=#82b366;" vertex="1" parent="1">
          <mxGeometry x="317" y="681" width="64" height="64" as="geometry" />
        </mxCell>
        <mxCell id="XYY6bWEJs2ji5yLr34Nl-494" value="7" style="rounded=0;whiteSpace=wrap;html=1;fontSize=16;fillColor=#d5e8d4;strokeColor=#82b366;" vertex="1" parent="1">
          <mxGeometry x="189" y="745" width="64" height="64" as="geometry" />
        </mxCell>
        <mxCell id="XYY6bWEJs2ji5yLr34Nl-495" value="" style="rounded=0;whiteSpace=wrap;html=1;fontSize=16;fillColor=#d5e8d4;strokeColor=#82b366;" vertex="1" parent="1">
          <mxGeometry x="253" y="745" width="64" height="64" as="geometry" />
        </mxCell>
        <mxCell id="XYY6bWEJs2ji5yLr34Nl-496" value="" style="rounded=0;whiteSpace=wrap;html=1;fontSize=16;fillColor=#d5e8d4;strokeColor=#82b366;" vertex="1" parent="1">
          <mxGeometry x="317" y="745" width="64" height="64" as="geometry" />
        </mxCell>
        <mxCell id="XYY6bWEJs2ji5yLr34Nl-497" value="9" style="text;html=1;align=center;verticalAlign=middle;resizable=0;points=[];autosize=1;strokeColor=none;fillColor=none;fontSize=16;" vertex="1" parent="1">
          <mxGeometry x="271.5" y="633.5" width="27" height="31" as="geometry" />
        </mxCell>
        <mxCell id="XYY6bWEJs2ji5yLr34Nl-498" value="6" style="text;html=1;align=center;verticalAlign=middle;resizable=0;points=[];autosize=1;strokeColor=none;fillColor=none;fontSize=16;" vertex="1" parent="1">
          <mxGeometry x="271.5" y="697.5" width="27" height="31" as="geometry" />
        </mxCell>
        <mxCell id="XYY6bWEJs2ji5yLr34Nl-499" value="2" style="text;html=1;align=center;verticalAlign=middle;resizable=0;points=[];autosize=1;strokeColor=none;fillColor=none;fontSize=16;" vertex="1" parent="1">
          <mxGeometry x="271.5" y="761.5" width="27" height="31" as="geometry" />
        </mxCell>
        <mxCell id="XYY6bWEJs2ji5yLr34Nl-500" value="4" style="text;html=1;align=center;verticalAlign=middle;resizable=0;points=[];autosize=1;strokeColor=none;fillColor=none;fontSize=16;" vertex="1" parent="1">
          <mxGeometry x="335.5" y="761.5" width="27" height="31" as="geometry" />
        </mxCell>
        <mxCell id="XYY6bWEJs2ji5yLr34Nl-501" value="" style="endArrow=none;html=1;rounded=0;fontSize=12;startSize=8;endSize=8;curved=1;fillColor=#f8cecc;strokeColor=#b85450;strokeWidth=7;entryX=1;entryY=1;entryDx=0;entryDy=0;exitX=0;exitY=0;exitDx=0;exitDy=0;" edge="1" parent="1" source="XYY6bWEJs2ji5yLr34Nl-461">
          <mxGeometry width="50" height="50" relative="1" as="geometry">
            <mxPoint x="17" y="1021" as="sourcePoint" />
            <mxPoint x="381" y="617" as="targetPoint" />
          </mxGeometry>
        </mxCell>
        <mxCell id="XYY6bWEJs2ji5yLr34Nl-502" value="" style="endArrow=none;html=1;rounded=0;fontSize=12;startSize=8;endSize=8;curved=1;fillColor=#f8cecc;strokeColor=#b85450;strokeWidth=7;entryX=1;entryY=0;entryDx=0;entryDy=0;exitX=0;exitY=0;exitDx=0;exitDy=0;" edge="1" parent="1">
          <mxGeometry width="50" height="50" relative="1" as="geometry">
            <mxPoint x="-195" y="809" as="sourcePoint" />
            <mxPoint x="381" y="809" as="targetPoint" />
          </mxGeometry>
        </mxCell>
        <mxCell id="XYY6bWEJs2ji5yLr34Nl-503" value="" style="rounded=0;whiteSpace=wrap;html=1;fontSize=16;fillColor=#ffe6cc;strokeColor=#d79b00;" vertex="1" parent="1">
          <mxGeometry x="-195" y="809" width="64" height="64" as="geometry" />
        </mxCell>
        <mxCell id="XYY6bWEJs2ji5yLr34Nl-504" value="8" style="text;html=1;align=center;verticalAlign=middle;resizable=0;points=[];autosize=1;strokeColor=none;fillColor=none;fontSize=16;" vertex="1" parent="1">
          <mxGeometry x="-176.5" y="825.5" width="27" height="31" as="geometry" />
        </mxCell>
        <mxCell id="XYY6bWEJs2ji5yLr34Nl-505" value="" style="rounded=0;whiteSpace=wrap;html=1;fontSize=16;fillColor=#ffe6cc;strokeColor=#d79b00;" vertex="1" parent="1">
          <mxGeometry x="-131" y="809" width="64" height="64" as="geometry" />
        </mxCell>
        <mxCell id="XYY6bWEJs2ji5yLr34Nl-506" value="1" style="rounded=0;whiteSpace=wrap;html=1;fontSize=16;fillColor=#ffe6cc;strokeColor=#d79b00;" vertex="1" parent="1">
          <mxGeometry x="-67" y="809" width="64" height="64" as="geometry" />
        </mxCell>
        <mxCell id="XYY6bWEJs2ji5yLr34Nl-507" value="" style="rounded=0;whiteSpace=wrap;html=1;fontSize=16;fillColor=#ffe6cc;strokeColor=#d79b00;" vertex="1" parent="1">
          <mxGeometry x="-195" y="873" width="64" height="64" as="geometry" />
        </mxCell>
        <mxCell id="XYY6bWEJs2ji5yLr34Nl-508" value="3" style="text;html=1;align=center;verticalAlign=middle;resizable=0;points=[];autosize=1;strokeColor=none;fillColor=none;fontSize=16;" vertex="1" parent="1">
          <mxGeometry x="-176.5" y="889.5" width="27" height="31" as="geometry" />
        </mxCell>
        <mxCell id="XYY6bWEJs2ji5yLr34Nl-509" value="" style="rounded=0;whiteSpace=wrap;html=1;fontSize=16;fillColor=#ffe6cc;strokeColor=#d79b00;" vertex="1" parent="1">
          <mxGeometry x="-131" y="873" width="64" height="64" as="geometry" />
        </mxCell>
        <mxCell id="XYY6bWEJs2ji5yLr34Nl-510" value="5" style="rounded=0;whiteSpace=wrap;html=1;fontSize=16;fillColor=#ffe6cc;strokeColor=#d79b00;" vertex="1" parent="1">
          <mxGeometry x="-67" y="873" width="64" height="64" as="geometry" />
        </mxCell>
        <mxCell id="XYY6bWEJs2ji5yLr34Nl-511" value="" style="rounded=0;whiteSpace=wrap;html=1;fontSize=16;fillColor=#ffe6cc;strokeColor=#d79b00;" vertex="1" parent="1">
          <mxGeometry x="-195" y="937" width="64" height="64" as="geometry" />
        </mxCell>
        <mxCell id="XYY6bWEJs2ji5yLr34Nl-512" value="2" style="text;html=1;align=center;verticalAlign=middle;resizable=0;points=[];autosize=1;strokeColor=none;fillColor=none;fontSize=16;" vertex="1" parent="1">
          <mxGeometry x="-176.5" y="953.5" width="27" height="31" as="geometry" />
        </mxCell>
        <mxCell id="XYY6bWEJs2ji5yLr34Nl-513" value="9" style="rounded=0;whiteSpace=wrap;html=1;fontSize=16;fillColor=#ffe6cc;strokeColor=#d79b00;" vertex="1" parent="1">
          <mxGeometry x="-131" y="937" width="64" height="64" as="geometry" />
        </mxCell>
        <mxCell id="XYY6bWEJs2ji5yLr34Nl-514" value="" style="rounded=0;whiteSpace=wrap;html=1;fontSize=16;fillColor=#ffe6cc;strokeColor=#d79b00;" vertex="1" parent="1">
          <mxGeometry x="-67" y="937" width="64" height="64" as="geometry" />
        </mxCell>
        <mxCell id="XYY6bWEJs2ji5yLr34Nl-515" value="7" style="text;html=1;align=center;verticalAlign=middle;resizable=0;points=[];autosize=1;strokeColor=none;fillColor=none;fontSize=16;" vertex="1" parent="1">
          <mxGeometry x="-112.5" y="825.5" width="27" height="31" as="geometry" />
        </mxCell>
        <mxCell id="XYY6bWEJs2ji5yLr34Nl-516" value="4" style="text;html=1;align=center;verticalAlign=middle;resizable=0;points=[];autosize=1;strokeColor=none;fillColor=none;fontSize=16;" vertex="1" parent="1">
          <mxGeometry x="-112.5" y="889.5" width="27" height="31" as="geometry" />
        </mxCell>
        <mxCell id="XYY6bWEJs2ji5yLr34Nl-517" value="6" style="text;html=1;align=center;verticalAlign=middle;resizable=0;points=[];autosize=1;strokeColor=none;fillColor=none;fontSize=16;" vertex="1" parent="1">
          <mxGeometry x="-48.5" y="953.5" width="27" height="31" as="geometry" />
        </mxCell>
        <mxCell id="XYY6bWEJs2ji5yLr34Nl-518" value="" style="rounded=0;whiteSpace=wrap;html=1;fontSize=16;fillColor=#ffe6cc;strokeColor=#d79b00;" vertex="1" parent="1">
          <mxGeometry x="-3" y="809" width="64" height="64" as="geometry" />
        </mxCell>
        <mxCell id="XYY6bWEJs2ji5yLr34Nl-519" value="9" style="text;html=1;align=center;verticalAlign=middle;resizable=0;points=[];autosize=1;strokeColor=none;fillColor=none;fontSize=16;" vertex="1" parent="1">
          <mxGeometry x="15.5" y="825.5" width="27" height="31" as="geometry" />
        </mxCell>
        <mxCell id="XYY6bWEJs2ji5yLr34Nl-520" value="8" style="rounded=0;whiteSpace=wrap;html=1;fontSize=16;fillColor=#ffe6cc;strokeColor=#d79b00;" vertex="1" parent="1">
          <mxGeometry x="61" y="809" width="64" height="64" as="geometry" />
        </mxCell>
        <mxCell id="XYY6bWEJs2ji5yLr34Nl-521" value="" style="rounded=0;whiteSpace=wrap;html=1;fontSize=16;fillColor=#ffe6cc;strokeColor=#d79b00;" vertex="1" parent="1">
          <mxGeometry x="125" y="809" width="64" height="64" as="geometry" />
        </mxCell>
        <mxCell id="XYY6bWEJs2ji5yLr34Nl-522" value="4" style="rounded=0;whiteSpace=wrap;html=1;fontSize=16;fillColor=#ffe6cc;strokeColor=#d79b00;" vertex="1" parent="1">
          <mxGeometry x="-3" y="873" width="64" height="64" as="geometry" />
        </mxCell>
        <mxCell id="XYY6bWEJs2ji5yLr34Nl-523" value="" style="rounded=0;whiteSpace=wrap;html=1;fontSize=16;fillColor=#ffe6cc;strokeColor=#d79b00;" vertex="1" parent="1">
          <mxGeometry x="61" y="873" width="64" height="64" as="geometry" />
        </mxCell>
        <mxCell id="XYY6bWEJs2ji5yLr34Nl-524" value="2" style="rounded=0;whiteSpace=wrap;html=1;fontSize=16;fillColor=#ffe6cc;strokeColor=#d79b00;" vertex="1" parent="1">
          <mxGeometry x="125" y="873" width="64" height="64" as="geometry" />
        </mxCell>
        <mxCell id="XYY6bWEJs2ji5yLr34Nl-525" value="1" style="rounded=0;whiteSpace=wrap;html=1;fontSize=16;fillColor=#ffe6cc;strokeColor=#d79b00;" vertex="1" parent="1">
          <mxGeometry x="-3" y="937" width="64" height="64" as="geometry" />
        </mxCell>
        <mxCell id="XYY6bWEJs2ji5yLr34Nl-526" value="" style="rounded=0;whiteSpace=wrap;html=1;fontSize=16;fillColor=#ffe6cc;strokeColor=#d79b00;" vertex="1" parent="1">
          <mxGeometry x="61" y="937" width="64" height="64" as="geometry" />
        </mxCell>
        <mxCell id="XYY6bWEJs2ji5yLr34Nl-527" value="" style="rounded=0;whiteSpace=wrap;html=1;fontSize=16;fillColor=#ffe6cc;strokeColor=#d79b00;" vertex="1" parent="1">
          <mxGeometry x="125" y="937" width="64" height="64" as="geometry" />
        </mxCell>
        <mxCell id="XYY6bWEJs2ji5yLr34Nl-528" value="6" style="text;html=1;align=center;verticalAlign=middle;resizable=0;points=[];autosize=1;strokeColor=none;fillColor=none;fontSize=16;" vertex="1" parent="1">
          <mxGeometry x="143.5" y="825.5" width="27" height="31" as="geometry" />
        </mxCell>
        <mxCell id="XYY6bWEJs2ji5yLr34Nl-529" value="5" style="text;html=1;align=center;verticalAlign=middle;resizable=0;points=[];autosize=1;strokeColor=none;fillColor=none;fontSize=16;" vertex="1" parent="1">
          <mxGeometry x="79.5" y="889.5" width="27" height="31" as="geometry" />
        </mxCell>
        <mxCell id="XYY6bWEJs2ji5yLr34Nl-530" value="7" style="text;html=1;align=center;verticalAlign=middle;resizable=0;points=[];autosize=1;strokeColor=none;fillColor=none;fontSize=16;" vertex="1" parent="1">
          <mxGeometry x="79.5" y="953.5" width="27" height="31" as="geometry" />
        </mxCell>
        <mxCell id="XYY6bWEJs2ji5yLr34Nl-531" value="3" style="text;html=1;align=center;verticalAlign=middle;resizable=0;points=[];autosize=1;strokeColor=none;fillColor=none;fontSize=16;" vertex="1" parent="1">
          <mxGeometry x="143.5" y="953.5" width="27" height="31" as="geometry" />
        </mxCell>
        <mxCell id="XYY6bWEJs2ji5yLr34Nl-532" value="4" style="rounded=0;whiteSpace=wrap;html=1;fontSize=16;fillColor=#ffe6cc;strokeColor=#d79b00;" vertex="1" parent="1">
          <mxGeometry x="189" y="809" width="64" height="64" as="geometry" />
        </mxCell>
        <mxCell id="XYY6bWEJs2ji5yLr34Nl-533" value="" style="rounded=0;whiteSpace=wrap;html=1;fontSize=16;fillColor=#ffe6cc;strokeColor=#d79b00;" vertex="1" parent="1">
          <mxGeometry x="253" y="809" width="64" height="64" as="geometry" />
        </mxCell>
        <mxCell id="XYY6bWEJs2ji5yLr34Nl-534" value="" style="rounded=0;whiteSpace=wrap;html=1;fontSize=16;fillColor=#ffe6cc;strokeColor=#d79b00;" vertex="1" parent="1">
          <mxGeometry x="317" y="809" width="64" height="64" as="geometry" />
        </mxCell>
        <mxCell id="XYY6bWEJs2ji5yLr34Nl-535" value="" style="rounded=0;whiteSpace=wrap;html=1;fontSize=16;fillColor=#ffe6cc;strokeColor=#d79b00;" vertex="1" parent="1">
          <mxGeometry x="189" y="873" width="64" height="64" as="geometry" />
        </mxCell>
        <mxCell id="XYY6bWEJs2ji5yLr34Nl-536" value="2" style="text;html=1;align=center;verticalAlign=middle;resizable=0;points=[];autosize=1;strokeColor=none;fillColor=none;fontSize=16;" vertex="1" parent="1">
          <mxGeometry x="207.5" y="889.5" width="27" height="31" as="geometry" />
        </mxCell>
        <mxCell id="XYY6bWEJs2ji5yLr34Nl-537" value="" style="rounded=0;whiteSpace=wrap;html=1;fontSize=16;fillColor=#ffe6cc;strokeColor=#d79b00;" vertex="1" parent="1">
          <mxGeometry x="253" y="873" width="64" height="64" as="geometry" />
        </mxCell>
        <mxCell id="XYY6bWEJs2ji5yLr34Nl-538" value="8" style="rounded=0;whiteSpace=wrap;html=1;fontSize=16;fillColor=#ffe6cc;strokeColor=#d79b00;" vertex="1" parent="1">
          <mxGeometry x="317" y="873" width="64" height="64" as="geometry" />
        </mxCell>
        <mxCell id="XYY6bWEJs2ji5yLr34Nl-539" value="6" style="rounded=0;whiteSpace=wrap;html=1;fontSize=16;fillColor=#ffe6cc;strokeColor=#d79b00;" vertex="1" parent="1">
          <mxGeometry x="189" y="937" width="64" height="64" as="geometry" />
        </mxCell>
        <mxCell id="XYY6bWEJs2ji5yLr34Nl-540" value="9" style="rounded=0;whiteSpace=wrap;html=1;fontSize=16;fillColor=#ffe6cc;strokeColor=#d79b00;" vertex="1" parent="1">
          <mxGeometry x="253" y="937" width="64" height="64" as="geometry" />
        </mxCell>
        <mxCell id="XYY6bWEJs2ji5yLr34Nl-541" value="" style="rounded=0;whiteSpace=wrap;html=1;fontSize=16;fillColor=#ffe6cc;strokeColor=#d79b00;" vertex="1" parent="1">
          <mxGeometry x="317" y="937" width="64" height="64" as="geometry" />
        </mxCell>
        <mxCell id="XYY6bWEJs2ji5yLr34Nl-542" value="3" style="text;html=1;align=center;verticalAlign=middle;resizable=0;points=[];autosize=1;strokeColor=none;fillColor=none;fontSize=16;" vertex="1" parent="1">
          <mxGeometry x="271.5" y="825.5" width="27" height="31" as="geometry" />
        </mxCell>
        <mxCell id="XYY6bWEJs2ji5yLr34Nl-543" value="5" style="text;html=1;align=center;verticalAlign=middle;resizable=0;points=[];autosize=1;fontSize=16;" vertex="1" parent="1">
          <mxGeometry x="335.5" y="825.5" width="27" height="31" as="geometry" />
        </mxCell>
        <mxCell id="XYY6bWEJs2ji5yLr34Nl-544" value="7" style="text;html=1;align=center;verticalAlign=middle;resizable=0;points=[];autosize=1;strokeColor=none;fillColor=none;fontSize=16;" vertex="1" parent="1">
          <mxGeometry x="271.5" y="889.5" width="27" height="31" as="geometry" />
        </mxCell>
        <mxCell id="XYY6bWEJs2ji5yLr34Nl-545" value="1" style="text;html=1;align=center;verticalAlign=middle;resizable=0;points=[];autosize=1;fontSize=16;" vertex="1" parent="1">
          <mxGeometry x="335.5" y="953.5" width="27" height="31" as="geometry" />
        </mxCell>
        <mxCell id="XYY6bWEJs2ji5yLr34Nl-546" value="" style="endArrow=none;html=1;rounded=0;fontSize=12;startSize=8;endSize=8;curved=1;fillColor=#f8cecc;strokeColor=#b85450;strokeWidth=7;entryX=1;entryY=0;entryDx=0;entryDy=0;exitX=0;exitY=0;exitDx=0;exitDy=0;" edge="1" parent="1" source="XYY6bWEJs2ji5yLr34Nl-503" target="XYY6bWEJs2ji5yLr34Nl-534">
          <mxGeometry width="50" height="50" relative="1" as="geometry">
            <mxPoint x="27" y="1031" as="sourcePoint" />
            <mxPoint x="27" y="455" as="targetPoint" />
          </mxGeometry>
        </mxCell>
        <mxCell id="XYY6bWEJs2ji5yLr34Nl-547" value="" style="endArrow=none;html=1;rounded=0;fontSize=12;startSize=8;endSize=8;curved=1;fillColor=#f8cecc;strokeColor=#b85450;strokeWidth=7;entryX=1;entryY=0;entryDx=0;entryDy=0;exitX=0;exitY=1;exitDx=0;exitDy=0;" edge="1" parent="1">
          <mxGeometry width="50" height="50" relative="1" as="geometry">
            <mxPoint x="-3" y="1001" as="sourcePoint" />
            <mxPoint x="-3" y="425" as="targetPoint" />
          </mxGeometry>
        </mxCell>
        <mxCell id="XYY6bWEJs2ji5yLr34Nl-548" value="" style="endArrow=none;html=1;rounded=0;fontSize=12;startSize=8;endSize=8;curved=1;fillColor=#f8cecc;strokeColor=#b85450;strokeWidth=7;entryX=1;entryY=0;entryDx=0;entryDy=0;exitX=0;exitY=1;exitDx=0;exitDy=0;" edge="1" parent="1">
          <mxGeometry width="50" height="50" relative="1" as="geometry">
            <mxPoint x="189" y="1001" as="sourcePoint" />
            <mxPoint x="189" y="425" as="targetPoint" />
          </mxGeometry>
        </mxCell>
        <mxCell id="XYY6bWEJs2ji5yLr34Nl-549" value="2" style="rounded=0;whiteSpace=wrap;html=1;fontSize=16;fillColor=#d5e8d4;strokeColor=#82b366;" vertex="1" parent="1">
          <mxGeometry x="417" y="425" width="64" height="64" as="geometry" />
        </mxCell>
        <mxCell id="XYY6bWEJs2ji5yLr34Nl-550" value="" style="rounded=0;whiteSpace=wrap;html=1;fontSize=16;fillColor=#d5e8d4;strokeColor=#82b366;" vertex="1" parent="1">
          <mxGeometry x="481" y="425" width="64" height="64" as="geometry" />
        </mxCell>
        <mxCell id="XYY6bWEJs2ji5yLr34Nl-551" value="9" style="rounded=0;whiteSpace=wrap;html=1;fontSize=16;fillColor=#d5e8d4;strokeColor=#82b366;" vertex="1" parent="1">
          <mxGeometry x="545" y="425" width="64" height="64" as="geometry" />
        </mxCell>
        <mxCell id="XYY6bWEJs2ji5yLr34Nl-552" value="7" style="rounded=0;whiteSpace=wrap;html=1;fontSize=16;fillColor=#d5e8d4;strokeColor=#82b366;" vertex="1" parent="1">
          <mxGeometry x="417" y="489" width="64" height="64" as="geometry" />
        </mxCell>
        <mxCell id="XYY6bWEJs2ji5yLr34Nl-553" value="3" style="rounded=0;whiteSpace=wrap;html=1;fontSize=16;fillColor=#d5e8d4;strokeColor=#82b366;" vertex="1" parent="1">
          <mxGeometry x="481" y="489" width="64" height="64" as="geometry" />
        </mxCell>
        <mxCell id="XYY6bWEJs2ji5yLr34Nl-554" value="5" style="rounded=0;whiteSpace=wrap;html=1;fontSize=16;fillColor=#d5e8d4;strokeColor=#82b366;" vertex="1" parent="1">
          <mxGeometry x="545" y="489" width="64" height="64" as="geometry" />
        </mxCell>
        <mxCell id="XYY6bWEJs2ji5yLr34Nl-555" value="" style="rounded=0;whiteSpace=wrap;html=1;fontSize=16;fillColor=#d5e8d4;strokeColor=#82b366;" vertex="1" parent="1">
          <mxGeometry x="417" y="553" width="64" height="64" as="geometry" />
        </mxCell>
        <mxCell id="XYY6bWEJs2ji5yLr34Nl-556" value="1" style="text;html=1;align=center;verticalAlign=middle;resizable=0;points=[];autosize=1;fontSize=16;" vertex="1" parent="1">
          <mxGeometry x="435.5" y="569.5" width="27" height="31" as="geometry" />
        </mxCell>
        <mxCell id="XYY6bWEJs2ji5yLr34Nl-557" value="4" style="rounded=0;whiteSpace=wrap;html=1;fontSize=16;fillColor=#d5e8d4;strokeColor=#82b366;" vertex="1" parent="1">
          <mxGeometry x="481" y="553" width="65" height="65" as="geometry" />
        </mxCell>
        <mxCell id="XYY6bWEJs2ji5yLr34Nl-558" value="8" style="rounded=0;whiteSpace=wrap;html=1;fontSize=16;fillColor=#d5e8d4;strokeColor=#82b366;" vertex="1" parent="1">
          <mxGeometry x="545" y="553" width="64" height="64" as="geometry" />
        </mxCell>
        <mxCell id="XYY6bWEJs2ji5yLr34Nl-559" value="6" style="text;html=1;align=center;verticalAlign=middle;resizable=0;points=[];autosize=1;fontSize=16;" vertex="1" parent="1">
          <mxGeometry x="499.5" y="441.5" width="27" height="31" as="geometry" />
        </mxCell>
        <mxCell id="XYY6bWEJs2ji5yLr34Nl-560" value="" style="rounded=0;whiteSpace=wrap;html=1;fontSize=16;fillColor=#d5e8d4;strokeColor=#82b366;" vertex="1" parent="1">
          <mxGeometry x="609" y="425" width="64" height="64" as="geometry" />
        </mxCell>
        <mxCell id="XYY6bWEJs2ji5yLr34Nl-561" value="2" style="text;html=1;align=center;verticalAlign=middle;resizable=0;points=[];autosize=1;strokeColor=none;fillColor=none;fontSize=16;" vertex="1" parent="1">
          <mxGeometry x="627.5" y="441.5" width="27" height="31" as="geometry" />
        </mxCell>
        <mxCell id="XYY6bWEJs2ji5yLr34Nl-562" value="1" style="rounded=0;whiteSpace=wrap;html=1;fontSize=16;fillColor=#d5e8d4;strokeColor=#82b366;" vertex="1" parent="1">
          <mxGeometry x="673" y="425" width="64" height="64" as="geometry" />
        </mxCell>
        <mxCell id="XYY6bWEJs2ji5yLr34Nl-563" value="" style="rounded=0;whiteSpace=wrap;html=1;fontSize=16;fillColor=#d5e8d4;strokeColor=#82b366;" vertex="1" parent="1">
          <mxGeometry x="737" y="425" width="64" height="64" as="geometry" />
        </mxCell>
        <mxCell id="XYY6bWEJs2ji5yLr34Nl-564" value="7" style="rounded=0;whiteSpace=wrap;html=1;fontSize=16;fillColor=#d5e8d4;strokeColor=#82b366;" vertex="1" parent="1">
          <mxGeometry x="609" y="489" width="64" height="64" as="geometry" />
        </mxCell>
        <mxCell id="XYY6bWEJs2ji5yLr34Nl-565" value="" style="rounded=0;whiteSpace=wrap;html=1;fontSize=16;fillColor=#d5e8d4;strokeColor=#82b366;" vertex="1" parent="1">
          <mxGeometry x="673" y="489" width="64" height="64" as="geometry" />
        </mxCell>
        <mxCell id="XYY6bWEJs2ji5yLr34Nl-566" value="5" style="rounded=0;whiteSpace=wrap;html=1;fontSize=16;fillColor=#d5e8d4;strokeColor=#82b366;" vertex="1" parent="1">
          <mxGeometry x="737" y="489" width="64" height="64" as="geometry" />
        </mxCell>
        <mxCell id="XYY6bWEJs2ji5yLr34Nl-567" value="" style="rounded=0;whiteSpace=wrap;html=1;fontSize=16;fillColor=#d5e8d4;strokeColor=#82b366;" vertex="1" parent="1">
          <mxGeometry x="609" y="553" width="64" height="64" as="geometry" />
        </mxCell>
        <mxCell id="XYY6bWEJs2ji5yLr34Nl-568" value="6" style="text;html=1;align=center;verticalAlign=middle;resizable=0;points=[];autosize=1;fontSize=16;" vertex="1" parent="1">
          <mxGeometry x="627.5" y="569.5" width="27" height="31" as="geometry" />
        </mxCell>
        <mxCell id="XYY6bWEJs2ji5yLr34Nl-569" value="4" style="rounded=0;whiteSpace=wrap;html=1;fontSize=16;fillColor=#d5e8d4;strokeColor=#82b366;" vertex="1" parent="1">
          <mxGeometry x="673" y="553" width="64" height="64" as="geometry" />
        </mxCell>
        <mxCell id="XYY6bWEJs2ji5yLr34Nl-570" value="6" style="rounded=0;whiteSpace=wrap;html=1;fontSize=16;fillColor=#d5e8d4;strokeColor=#82b366;" vertex="1" parent="1">
          <mxGeometry x="737" y="553" width="64" height="64" as="geometry" />
        </mxCell>
        <mxCell id="XYY6bWEJs2ji5yLr34Nl-571" value="9" style="text;html=1;align=center;verticalAlign=middle;resizable=0;points=[];autosize=1;strokeColor=none;fillColor=none;fontSize=16;" vertex="1" parent="1">
          <mxGeometry x="755.5" y="441.5" width="27" height="31" as="geometry" />
        </mxCell>
        <mxCell id="XYY6bWEJs2ji5yLr34Nl-572" value="3" style="text;html=1;align=center;verticalAlign=middle;resizable=0;points=[];autosize=1;strokeColor=none;fillColor=none;fontSize=16;" vertex="1" parent="1">
          <mxGeometry x="691.5" y="505.5" width="27" height="31" as="geometry" />
        </mxCell>
        <mxCell id="XYY6bWEJs2ji5yLr34Nl-573" value="2" style="rounded=0;whiteSpace=wrap;html=1;fontSize=16;fillColor=#d5e8d4;strokeColor=#82b366;" vertex="1" parent="1">
          <mxGeometry x="801" y="425" width="64" height="64" as="geometry" />
        </mxCell>
        <mxCell id="XYY6bWEJs2ji5yLr34Nl-574" value="3" style="rounded=0;whiteSpace=wrap;html=1;fontSize=16;fillColor=#d5e8d4;strokeColor=#82b366;" vertex="1" parent="1">
          <mxGeometry x="865" y="425" width="64" height="64" as="geometry" />
        </mxCell>
        <mxCell id="XYY6bWEJs2ji5yLr34Nl-575" value="4" style="rounded=0;whiteSpace=wrap;html=1;fontSize=16;fillColor=#d5e8d4;strokeColor=#82b366;" vertex="1" parent="1">
          <mxGeometry x="929" y="425" width="64" height="64" as="geometry" />
        </mxCell>
        <mxCell id="XYY6bWEJs2ji5yLr34Nl-576" value="6" style="rounded=0;whiteSpace=wrap;html=1;fontSize=16;fillColor=#d5e8d4;strokeColor=#82b366;" vertex="1" parent="1">
          <mxGeometry x="801" y="489" width="64" height="64" as="geometry" />
        </mxCell>
        <mxCell id="XYY6bWEJs2ji5yLr34Nl-577" value="" style="rounded=0;whiteSpace=wrap;html=1;fontSize=16;fillColor=#d5e8d4;strokeColor=#82b366;" vertex="1" parent="1">
          <mxGeometry x="865" y="489" width="64" height="64" as="geometry" />
        </mxCell>
        <mxCell id="XYY6bWEJs2ji5yLr34Nl-578" value="7" style="rounded=0;whiteSpace=wrap;html=1;fontSize=16;fillColor=#d5e8d4;strokeColor=#82b366;" vertex="1" parent="1">
          <mxGeometry x="929" y="489" width="64" height="64" as="geometry" />
        </mxCell>
        <mxCell id="XYY6bWEJs2ji5yLr34Nl-579" value="8" style="rounded=0;whiteSpace=wrap;html=1;fontSize=16;fillColor=#d5e8d4;strokeColor=#82b366;" vertex="1" parent="1">
          <mxGeometry x="801" y="553" width="64" height="64" as="geometry" />
        </mxCell>
        <mxCell id="XYY6bWEJs2ji5yLr34Nl-580" value="5" style="rounded=0;whiteSpace=wrap;html=1;fontSize=16;fillColor=#d5e8d4;strokeColor=#82b366;" vertex="1" parent="1">
          <mxGeometry x="865" y="553" width="64" height="64" as="geometry" />
        </mxCell>
        <mxCell id="XYY6bWEJs2ji5yLr34Nl-581" value="" style="rounded=0;whiteSpace=wrap;html=1;fontSize=16;fillColor=#d5e8d4;strokeColor=#82b366;" vertex="1" parent="1">
          <mxGeometry x="929" y="553" width="64" height="64" as="geometry" />
        </mxCell>
        <mxCell id="XYY6bWEJs2ji5yLr34Nl-582" value="1" style="text;html=1;align=center;verticalAlign=middle;resizable=0;points=[];autosize=1;strokeColor=none;fillColor=none;fontSize=16;" vertex="1" parent="1">
          <mxGeometry x="883.5" y="505.5" width="27" height="31" as="geometry" />
        </mxCell>
        <mxCell id="XYY6bWEJs2ji5yLr34Nl-583" value="9" style="text;html=1;align=center;verticalAlign=middle;resizable=0;points=[];autosize=1;fontSize=16;" vertex="1" parent="1">
          <mxGeometry x="947.5" y="569.5" width="27" height="31" as="geometry" />
        </mxCell>
        <mxCell id="XYY6bWEJs2ji5yLr34Nl-584" value="" style="endArrow=none;html=1;rounded=0;fontSize=12;startSize=8;endSize=8;curved=1;fillColor=#f8cecc;strokeColor=#b85450;strokeWidth=7;entryX=1;entryY=1;entryDx=0;entryDy=0;exitX=0;exitY=0;exitDx=0;exitDy=0;" edge="1" parent="1" target="XYY6bWEJs2ji5yLr34Nl-581">
          <mxGeometry width="50" height="50" relative="1" as="geometry">
            <mxPoint x="417" y="617" as="sourcePoint" />
            <mxPoint x="629" y="445" as="targetPoint" />
          </mxGeometry>
        </mxCell>
        <mxCell id="XYY6bWEJs2ji5yLr34Nl-585" value="" style="rounded=0;whiteSpace=wrap;html=1;fontSize=16;fillColor=#ffe6cc;strokeColor=#d79b00;" vertex="1" parent="1">
          <mxGeometry x="417" y="618" width="64" height="64" as="geometry" />
        </mxCell>
        <mxCell id="XYY6bWEJs2ji5yLr34Nl-586" value="4" style="text;html=1;align=center;verticalAlign=middle;resizable=0;points=[];autosize=1;strokeColor=none;fillColor=none;fontSize=16;" vertex="1" parent="1">
          <mxGeometry x="435.5" y="634.5" width="27" height="31" as="geometry" />
        </mxCell>
        <mxCell id="XYY6bWEJs2ji5yLr34Nl-587" value="" style="rounded=0;whiteSpace=wrap;html=1;fontSize=16;fillColor=#ffe6cc;strokeColor=#d79b00;" vertex="1" parent="1">
          <mxGeometry x="481" y="618" width="64" height="64" as="geometry" />
        </mxCell>
        <mxCell id="XYY6bWEJs2ji5yLr34Nl-588" value="1" style="rounded=0;whiteSpace=wrap;html=1;fontSize=16;fillColor=#ffe6cc;strokeColor=#d79b00;" vertex="1" parent="1">
          <mxGeometry x="545" y="618" width="64" height="64" as="geometry" />
        </mxCell>
        <mxCell id="XYY6bWEJs2ji5yLr34Nl-589" value="6" style="rounded=0;whiteSpace=wrap;html=1;fontSize=16;fillColor=#ffe6cc;strokeColor=#d79b00;" vertex="1" parent="1">
          <mxGeometry x="417" y="682" width="64" height="64" as="geometry" />
        </mxCell>
        <mxCell id="XYY6bWEJs2ji5yLr34Nl-590" value="7" style="rounded=0;whiteSpace=wrap;html=1;fontSize=16;fillColor=#ffe6cc;strokeColor=#d79b00;" vertex="1" parent="1">
          <mxGeometry x="481" y="682" width="64" height="64" as="geometry" />
        </mxCell>
        <mxCell id="XYY6bWEJs2ji5yLr34Nl-591" value="" style="rounded=0;whiteSpace=wrap;html=1;fontSize=16;fillColor=#ffe6cc;strokeColor=#d79b00;" vertex="1" parent="1">
          <mxGeometry x="545" y="682" width="64" height="64" as="geometry" />
        </mxCell>
        <mxCell id="XYY6bWEJs2ji5yLr34Nl-592" value="9" style="rounded=0;whiteSpace=wrap;html=1;fontSize=16;fillColor=#ffe6cc;strokeColor=#d79b00;" vertex="1" parent="1">
          <mxGeometry x="417" y="746" width="64" height="64" as="geometry" />
        </mxCell>
        <mxCell id="XYY6bWEJs2ji5yLr34Nl-593" value="" style="rounded=0;whiteSpace=wrap;html=1;fontSize=16;fillColor=#ffe6cc;strokeColor=#d79b00;" vertex="1" parent="1">
          <mxGeometry x="481" y="746" width="64" height="64" as="geometry" />
        </mxCell>
        <mxCell id="XYY6bWEJs2ji5yLr34Nl-594" value="" style="rounded=0;whiteSpace=wrap;html=1;fontSize=16;fillColor=#ffe6cc;strokeColor=#d79b00;" vertex="1" parent="1">
          <mxGeometry x="545" y="746" width="64" height="64" as="geometry" />
        </mxCell>
        <mxCell id="XYY6bWEJs2ji5yLr34Nl-595" value="2" style="text;html=1;align=center;verticalAlign=middle;resizable=0;points=[];autosize=1;strokeColor=none;fillColor=none;fontSize=16;" vertex="1" parent="1">
          <mxGeometry x="499.5" y="634.5" width="27" height="31" as="geometry" />
        </mxCell>
        <mxCell id="XYY6bWEJs2ji5yLr34Nl-596" value="5" style="text;html=1;align=center;verticalAlign=middle;resizable=0;points=[];autosize=1;strokeColor=none;fillColor=none;fontSize=16;" vertex="1" parent="1">
          <mxGeometry x="563.5" y="698.5" width="27" height="31" as="geometry" />
        </mxCell>
        <mxCell id="XYY6bWEJs2ji5yLr34Nl-597" value="8" style="text;html=1;align=center;verticalAlign=middle;resizable=0;points=[];autosize=1;strokeColor=none;fillColor=none;fontSize=16;" vertex="1" parent="1">
          <mxGeometry x="499.5" y="762.5" width="27" height="31" as="geometry" />
        </mxCell>
        <mxCell id="XYY6bWEJs2ji5yLr34Nl-598" value="3" style="text;html=1;align=center;verticalAlign=middle;resizable=0;points=[];autosize=1;strokeColor=none;fillColor=none;fontSize=16;" vertex="1" parent="1">
          <mxGeometry x="563.5" y="762.5" width="27" height="31" as="geometry" />
        </mxCell>
        <mxCell id="XYY6bWEJs2ji5yLr34Nl-599" value="" style="rounded=0;whiteSpace=wrap;html=1;fontSize=16;fillColor=#ffe6cc;strokeColor=#d79b00;" vertex="1" parent="1">
          <mxGeometry x="609" y="618" width="64" height="64" as="geometry" />
        </mxCell>
        <mxCell id="XYY6bWEJs2ji5yLr34Nl-600" value="5" style="text;html=1;align=center;verticalAlign=middle;resizable=0;points=[];autosize=1;strokeColor=none;fillColor=none;fontSize=16;" vertex="1" parent="1">
          <mxGeometry x="627.5" y="634.5" width="27" height="31" as="geometry" />
        </mxCell>
        <mxCell id="XYY6bWEJs2ji5yLr34Nl-601" value="4" style="rounded=0;whiteSpace=wrap;html=1;fontSize=16;fillColor=#ffe6cc;strokeColor=#d79b00;" vertex="1" parent="1">
          <mxGeometry x="673" y="618" width="64" height="64" as="geometry" />
        </mxCell>
        <mxCell id="XYY6bWEJs2ji5yLr34Nl-602" value="9" style="rounded=0;whiteSpace=wrap;html=1;fontSize=16;fillColor=#ffe6cc;strokeColor=#d79b00;" vertex="1" parent="1">
          <mxGeometry x="737" y="618" width="64" height="64" as="geometry" />
        </mxCell>
        <mxCell id="XYY6bWEJs2ji5yLr34Nl-603" value="" style="rounded=0;whiteSpace=wrap;html=1;fontSize=16;fillColor=#ffe6cc;strokeColor=#d79b00;" vertex="1" parent="1">
          <mxGeometry x="609" y="682" width="64" height="64" as="geometry" />
        </mxCell>
        <mxCell id="XYY6bWEJs2ji5yLr34Nl-604" value="3" style="text;html=1;align=center;verticalAlign=middle;resizable=0;points=[];autosize=1;strokeColor=none;fillColor=none;fontSize=16;" vertex="1" parent="1">
          <mxGeometry x="627.5" y="698.5" width="27" height="31" as="geometry" />
        </mxCell>
        <mxCell id="XYY6bWEJs2ji5yLr34Nl-605" value="6" style="rounded=0;whiteSpace=wrap;html=1;fontSize=16;fillColor=#ffe6cc;strokeColor=#d79b00;" vertex="1" parent="1">
          <mxGeometry x="673" y="682" width="64" height="64" as="geometry" />
        </mxCell>
        <mxCell id="XYY6bWEJs2ji5yLr34Nl-606" value="" style="rounded=0;whiteSpace=wrap;html=1;fontSize=16;fillColor=#ffe6cc;strokeColor=#d79b00;" vertex="1" parent="1">
          <mxGeometry x="737" y="682" width="64" height="64" as="geometry" />
        </mxCell>
        <mxCell id="XYY6bWEJs2ji5yLr34Nl-607" value="" style="rounded=0;whiteSpace=wrap;html=1;fontSize=16;fillColor=#ffe6cc;strokeColor=#d79b00;" vertex="1" parent="1">
          <mxGeometry x="609" y="746" width="64" height="64" as="geometry" />
        </mxCell>
        <mxCell id="XYY6bWEJs2ji5yLr34Nl-608" value="1" style="text;html=1;align=center;verticalAlign=middle;resizable=0;points=[];autosize=1;strokeColor=none;fillColor=none;fontSize=16;" vertex="1" parent="1">
          <mxGeometry x="627.5" y="762.5" width="27" height="31" as="geometry" />
        </mxCell>
        <mxCell id="XYY6bWEJs2ji5yLr34Nl-609" value="7" style="rounded=0;whiteSpace=wrap;html=1;fontSize=16;fillColor=#ffe6cc;strokeColor=#d79b00;" vertex="1" parent="1">
          <mxGeometry x="673" y="746" width="64" height="64" as="geometry" />
        </mxCell>
        <mxCell id="XYY6bWEJs2ji5yLr34Nl-610" value="8" style="rounded=0;whiteSpace=wrap;html=1;fontSize=16;fillColor=#ffe6cc;strokeColor=#d79b00;" vertex="1" parent="1">
          <mxGeometry x="737" y="746" width="64" height="64" as="geometry" />
        </mxCell>
        <mxCell id="XYY6bWEJs2ji5yLr34Nl-611" value="2" style="text;html=1;align=center;verticalAlign=middle;resizable=0;points=[];autosize=1;strokeColor=none;fillColor=none;fontSize=16;" vertex="1" parent="1">
          <mxGeometry x="755.5" y="698.5" width="27" height="31" as="geometry" />
        </mxCell>
        <mxCell id="XYY6bWEJs2ji5yLr34Nl-612" value="1" style="rounded=0;whiteSpace=wrap;html=1;fontSize=16;fillColor=#ffe6cc;strokeColor=#d79b00;" vertex="1" parent="1">
          <mxGeometry x="801" y="618" width="64" height="64" as="geometry" />
        </mxCell>
        <mxCell id="XYY6bWEJs2ji5yLr34Nl-613" value="" style="rounded=0;whiteSpace=wrap;html=1;fontSize=16;fillColor=#ffe6cc;strokeColor=#d79b00;" vertex="1" parent="1">
          <mxGeometry x="865" y="618" width="64" height="64" as="geometry" />
        </mxCell>
        <mxCell id="XYY6bWEJs2ji5yLr34Nl-614" value="5" style="rounded=0;whiteSpace=wrap;html=1;fontSize=16;fillColor=#ffe6cc;strokeColor=#d79b00;" vertex="1" parent="1">
          <mxGeometry x="929" y="618" width="64" height="64" as="geometry" />
        </mxCell>
        <mxCell id="XYY6bWEJs2ji5yLr34Nl-615" value="" style="rounded=0;whiteSpace=wrap;html=1;fontSize=16;fillColor=#ffe6cc;strokeColor=#d79b00;" vertex="1" parent="1">
          <mxGeometry x="801" y="682" width="64" height="64" as="geometry" />
        </mxCell>
        <mxCell id="XYY6bWEJs2ji5yLr34Nl-616" value="8" style="text;html=1;align=center;verticalAlign=middle;resizable=0;points=[];autosize=1;strokeColor=none;fillColor=none;fontSize=16;" vertex="1" parent="1">
          <mxGeometry x="819.5" y="698.5" width="27" height="31" as="geometry" />
        </mxCell>
        <mxCell id="XYY6bWEJs2ji5yLr34Nl-617" value="" style="rounded=0;whiteSpace=wrap;html=1;fontSize=16;fillColor=#ffe6cc;strokeColor=#d79b00;" vertex="1" parent="1">
          <mxGeometry x="865" y="682" width="64" height="64" as="geometry" />
        </mxCell>
        <mxCell id="XYY6bWEJs2ji5yLr34Nl-618" value="3" style="rounded=0;whiteSpace=wrap;html=1;fontSize=16;fillColor=#ffe6cc;strokeColor=#d79b00;" vertex="1" parent="1">
          <mxGeometry x="929" y="682" width="64" height="64" as="geometry" />
        </mxCell>
        <mxCell id="XYY6bWEJs2ji5yLr34Nl-619" value="7" style="rounded=0;whiteSpace=wrap;html=1;fontSize=16;fillColor=#ffe6cc;strokeColor=#d79b00;" vertex="1" parent="1">
          <mxGeometry x="801" y="746" width="64" height="64" as="geometry" />
        </mxCell>
        <mxCell id="XYY6bWEJs2ji5yLr34Nl-620" value="" style="rounded=0;whiteSpace=wrap;html=1;fontSize=16;fillColor=#ffe6cc;strokeColor=#d79b00;" vertex="1" parent="1">
          <mxGeometry x="865" y="746" width="64" height="64" as="geometry" />
        </mxCell>
        <mxCell id="XYY6bWEJs2ji5yLr34Nl-621" value="" style="rounded=0;whiteSpace=wrap;html=1;fontSize=16;fillColor=#ffe6cc;strokeColor=#d79b00;" vertex="1" parent="1">
          <mxGeometry x="929" y="746" width="64" height="64" as="geometry" />
        </mxCell>
        <mxCell id="XYY6bWEJs2ji5yLr34Nl-622" value="9" style="text;html=1;align=center;verticalAlign=middle;resizable=0;points=[];autosize=1;strokeColor=none;fillColor=none;fontSize=16;" vertex="1" parent="1">
          <mxGeometry x="883.5" y="634.5" width="27" height="31" as="geometry" />
        </mxCell>
        <mxCell id="XYY6bWEJs2ji5yLr34Nl-623" value="6" style="text;html=1;align=center;verticalAlign=middle;resizable=0;points=[];autosize=1;strokeColor=none;fillColor=none;fontSize=16;" vertex="1" parent="1">
          <mxGeometry x="883.5" y="698.5" width="27" height="31" as="geometry" />
        </mxCell>
        <mxCell id="XYY6bWEJs2ji5yLr34Nl-624" value="2" style="text;html=1;align=center;verticalAlign=middle;resizable=0;points=[];autosize=1;strokeColor=none;fillColor=none;fontSize=16;" vertex="1" parent="1">
          <mxGeometry x="883.5" y="762.5" width="27" height="31" as="geometry" />
        </mxCell>
        <mxCell id="XYY6bWEJs2ji5yLr34Nl-625" value="4" style="text;html=1;align=center;verticalAlign=middle;resizable=0;points=[];autosize=1;strokeColor=none;fillColor=none;fontSize=16;" vertex="1" parent="1">
          <mxGeometry x="947.5" y="762.5" width="27" height="31" as="geometry" />
        </mxCell>
        <mxCell id="XYY6bWEJs2ji5yLr34Nl-626" value="" style="endArrow=none;html=1;rounded=0;fontSize=12;startSize=8;endSize=8;curved=1;fillColor=#f8cecc;strokeColor=#b85450;strokeWidth=7;entryX=1;entryY=1;entryDx=0;entryDy=0;exitX=0;exitY=0;exitDx=0;exitDy=0;" edge="1" parent="1" source="XYY6bWEJs2ji5yLr34Nl-585">
          <mxGeometry width="50" height="50" relative="1" as="geometry">
            <mxPoint x="629" y="1022" as="sourcePoint" />
            <mxPoint x="993" y="618" as="targetPoint" />
          </mxGeometry>
        </mxCell>
        <mxCell id="XYY6bWEJs2ji5yLr34Nl-627" value="" style="endArrow=none;html=1;rounded=0;fontSize=12;startSize=8;endSize=8;curved=1;fillColor=#f8cecc;strokeColor=#b85450;strokeWidth=7;entryX=1;entryY=0;entryDx=0;entryDy=0;exitX=0;exitY=0;exitDx=0;exitDy=0;" edge="1" parent="1">
          <mxGeometry width="50" height="50" relative="1" as="geometry">
            <mxPoint x="417" y="810" as="sourcePoint" />
            <mxPoint x="993" y="810" as="targetPoint" />
          </mxGeometry>
        </mxCell>
        <mxCell id="XYY6bWEJs2ji5yLr34Nl-628" value="" style="rounded=0;whiteSpace=wrap;html=1;fontSize=16;fillColor=#d5e8d4;strokeColor=#82b366;" vertex="1" parent="1">
          <mxGeometry x="417" y="810" width="64" height="64" as="geometry" />
        </mxCell>
        <mxCell id="XYY6bWEJs2ji5yLr34Nl-629" value="8" style="text;html=1;align=center;verticalAlign=middle;resizable=0;points=[];autosize=1;strokeColor=none;fillColor=none;fontSize=16;" vertex="1" parent="1">
          <mxGeometry x="435.5" y="826.5" width="27" height="31" as="geometry" />
        </mxCell>
        <mxCell id="XYY6bWEJs2ji5yLr34Nl-630" value="" style="rounded=0;whiteSpace=wrap;html=1;fontSize=16;fillColor=#d5e8d4;strokeColor=#82b366;" vertex="1" parent="1">
          <mxGeometry x="481" y="810" width="64" height="64" as="geometry" />
        </mxCell>
        <mxCell id="XYY6bWEJs2ji5yLr34Nl-631" value="1" style="rounded=0;whiteSpace=wrap;html=1;fontSize=16;fillColor=#d5e8d4;strokeColor=#82b366;" vertex="1" parent="1">
          <mxGeometry x="545" y="810" width="64" height="64" as="geometry" />
        </mxCell>
        <mxCell id="XYY6bWEJs2ji5yLr34Nl-632" value="" style="rounded=0;whiteSpace=wrap;html=1;fontSize=16;fillColor=#d5e8d4;strokeColor=#82b366;" vertex="1" parent="1">
          <mxGeometry x="417" y="874" width="64" height="64" as="geometry" />
        </mxCell>
        <mxCell id="XYY6bWEJs2ji5yLr34Nl-633" value="3" style="text;html=1;align=center;verticalAlign=middle;resizable=0;points=[];autosize=1;strokeColor=none;fillColor=none;fontSize=16;" vertex="1" parent="1">
          <mxGeometry x="435.5" y="890.5" width="27" height="31" as="geometry" />
        </mxCell>
        <mxCell id="XYY6bWEJs2ji5yLr34Nl-634" value="" style="rounded=0;whiteSpace=wrap;html=1;fontSize=16;fillColor=#d5e8d4;strokeColor=#82b366;" vertex="1" parent="1">
          <mxGeometry x="481" y="874" width="64" height="64" as="geometry" />
        </mxCell>
        <mxCell id="XYY6bWEJs2ji5yLr34Nl-635" value="5" style="rounded=0;whiteSpace=wrap;html=1;fontSize=16;fillColor=#d5e8d4;strokeColor=#82b366;" vertex="1" parent="1">
          <mxGeometry x="545" y="874" width="64" height="64" as="geometry" />
        </mxCell>
        <mxCell id="XYY6bWEJs2ji5yLr34Nl-636" value="" style="rounded=0;whiteSpace=wrap;html=1;fontSize=16;fillColor=#d5e8d4;strokeColor=#82b366;" vertex="1" parent="1">
          <mxGeometry x="417" y="938" width="64" height="64" as="geometry" />
        </mxCell>
        <mxCell id="XYY6bWEJs2ji5yLr34Nl-637" value="2" style="text;html=1;align=center;verticalAlign=middle;resizable=0;points=[];autosize=1;strokeColor=none;fillColor=none;fontSize=16;" vertex="1" parent="1">
          <mxGeometry x="435.5" y="954.5" width="27" height="31" as="geometry" />
        </mxCell>
        <mxCell id="XYY6bWEJs2ji5yLr34Nl-638" value="9" style="rounded=0;whiteSpace=wrap;html=1;fontSize=16;fillColor=#d5e8d4;strokeColor=#82b366;" vertex="1" parent="1">
          <mxGeometry x="481" y="938" width="64" height="64" as="geometry" />
        </mxCell>
        <mxCell id="XYY6bWEJs2ji5yLr34Nl-639" value="" style="rounded=0;whiteSpace=wrap;html=1;fontSize=16;fillColor=#d5e8d4;strokeColor=#82b366;" vertex="1" parent="1">
          <mxGeometry x="545" y="938" width="64" height="64" as="geometry" />
        </mxCell>
        <mxCell id="XYY6bWEJs2ji5yLr34Nl-640" value="7" style="text;html=1;align=center;verticalAlign=middle;resizable=0;points=[];autosize=1;strokeColor=none;fillColor=none;fontSize=16;" vertex="1" parent="1">
          <mxGeometry x="499.5" y="826.5" width="27" height="31" as="geometry" />
        </mxCell>
        <mxCell id="XYY6bWEJs2ji5yLr34Nl-641" value="4" style="text;html=1;align=center;verticalAlign=middle;resizable=0;points=[];autosize=1;strokeColor=none;fillColor=none;fontSize=16;" vertex="1" parent="1">
          <mxGeometry x="499.5" y="890.5" width="27" height="31" as="geometry" />
        </mxCell>
        <mxCell id="XYY6bWEJs2ji5yLr34Nl-642" value="6" style="text;html=1;align=center;verticalAlign=middle;resizable=0;points=[];autosize=1;strokeColor=none;fillColor=none;fontSize=16;" vertex="1" parent="1">
          <mxGeometry x="563.5" y="954.5" width="27" height="31" as="geometry" />
        </mxCell>
        <mxCell id="XYY6bWEJs2ji5yLr34Nl-643" value="" style="rounded=0;whiteSpace=wrap;html=1;fontSize=16;fillColor=#d5e8d4;strokeColor=#82b366;" vertex="1" parent="1">
          <mxGeometry x="609" y="810" width="64" height="64" as="geometry" />
        </mxCell>
        <mxCell id="XYY6bWEJs2ji5yLr34Nl-644" value="9" style="text;html=1;align=center;verticalAlign=middle;resizable=0;points=[];autosize=1;strokeColor=none;fillColor=none;fontSize=16;" vertex="1" parent="1">
          <mxGeometry x="627.5" y="826.5" width="27" height="31" as="geometry" />
        </mxCell>
        <mxCell id="XYY6bWEJs2ji5yLr34Nl-645" value="4" style="rounded=0;whiteSpace=wrap;html=1;fontSize=16;fillColor=#d5e8d4;strokeColor=#82b366;" vertex="1" parent="1">
          <mxGeometry x="673" y="810" width="64" height="64" as="geometry" />
        </mxCell>
        <mxCell id="XYY6bWEJs2ji5yLr34Nl-646" value="" style="rounded=0;whiteSpace=wrap;html=1;fontSize=16;fillColor=#d5e8d4;strokeColor=#82b366;" vertex="1" parent="1">
          <mxGeometry x="737" y="810" width="64" height="64" as="geometry" />
        </mxCell>
        <mxCell id="XYY6bWEJs2ji5yLr34Nl-647" value="2" style="rounded=0;whiteSpace=wrap;html=1;fontSize=16;fillColor=#d5e8d4;strokeColor=#82b366;" vertex="1" parent="1">
          <mxGeometry x="609" y="874" width="64" height="64" as="geometry" />
        </mxCell>
        <mxCell id="XYY6bWEJs2ji5yLr34Nl-648" value="" style="rounded=0;whiteSpace=wrap;html=1;fontSize=16;fillColor=#d5e8d4;strokeColor=#82b366;" vertex="1" parent="1">
          <mxGeometry x="673" y="874" width="64" height="64" as="geometry" />
        </mxCell>
        <mxCell id="XYY6bWEJs2ji5yLr34Nl-649" value="8" style="rounded=0;whiteSpace=wrap;html=1;fontSize=16;fillColor=#d5e8d4;strokeColor=#82b366;" vertex="1" parent="1">
          <mxGeometry x="737" y="874" width="64" height="64" as="geometry" />
        </mxCell>
        <mxCell id="XYY6bWEJs2ji5yLr34Nl-650" value="1" style="rounded=0;whiteSpace=wrap;html=1;fontSize=16;fillColor=#d5e8d4;strokeColor=#82b366;" vertex="1" parent="1">
          <mxGeometry x="609" y="938" width="64" height="64" as="geometry" />
        </mxCell>
        <mxCell id="XYY6bWEJs2ji5yLr34Nl-651" value="" style="rounded=0;whiteSpace=wrap;html=1;fontSize=16;fillColor=#d5e8d4;strokeColor=#82b366;" vertex="1" parent="1">
          <mxGeometry x="673" y="938" width="64" height="64" as="geometry" />
        </mxCell>
        <mxCell id="XYY6bWEJs2ji5yLr34Nl-652" value="" style="rounded=0;whiteSpace=wrap;html=1;fontSize=16;fillColor=#d5e8d4;strokeColor=#82b366;" vertex="1" parent="1">
          <mxGeometry x="737" y="938" width="64" height="64" as="geometry" />
        </mxCell>
        <mxCell id="XYY6bWEJs2ji5yLr34Nl-653" value="6" style="text;html=1;align=center;verticalAlign=middle;resizable=0;points=[];autosize=1;strokeColor=none;fillColor=none;fontSize=16;" vertex="1" parent="1">
          <mxGeometry x="755.5" y="826.5" width="27" height="31" as="geometry" />
        </mxCell>
        <mxCell id="XYY6bWEJs2ji5yLr34Nl-654" value="5" style="text;html=1;align=center;verticalAlign=middle;resizable=0;points=[];autosize=1;strokeColor=none;fillColor=none;fontSize=16;" vertex="1" parent="1">
          <mxGeometry x="691.5" y="890.5" width="27" height="31" as="geometry" />
        </mxCell>
        <mxCell id="XYY6bWEJs2ji5yLr34Nl-655" value="7" style="text;html=1;align=center;verticalAlign=middle;resizable=0;points=[];autosize=1;strokeColor=none;fillColor=none;fontSize=16;" vertex="1" parent="1">
          <mxGeometry x="691.5" y="954.5" width="27" height="31" as="geometry" />
        </mxCell>
        <mxCell id="XYY6bWEJs2ji5yLr34Nl-656" value="3" style="text;html=1;align=center;verticalAlign=middle;resizable=0;points=[];autosize=1;strokeColor=none;fillColor=none;fontSize=16;" vertex="1" parent="1">
          <mxGeometry x="755.5" y="954.5" width="27" height="31" as="geometry" />
        </mxCell>
        <mxCell id="XYY6bWEJs2ji5yLr34Nl-657" value="8" style="rounded=0;whiteSpace=wrap;html=1;fontSize=16;fillColor=#d5e8d4;strokeColor=#82b366;" vertex="1" parent="1">
          <mxGeometry x="801" y="810" width="64" height="64" as="geometry" />
        </mxCell>
        <mxCell id="XYY6bWEJs2ji5yLr34Nl-658" value="" style="rounded=0;whiteSpace=wrap;html=1;fontSize=16;fillColor=#d5e8d4;strokeColor=#82b366;" vertex="1" parent="1">
          <mxGeometry x="865" y="810" width="64" height="64" as="geometry" />
        </mxCell>
        <mxCell id="XYY6bWEJs2ji5yLr34Nl-659" value="" style="rounded=0;whiteSpace=wrap;html=1;fontSize=16;fillColor=#d5e8d4;strokeColor=#82b366;" vertex="1" parent="1">
          <mxGeometry x="929" y="810" width="64" height="64" as="geometry" />
        </mxCell>
        <mxCell id="XYY6bWEJs2ji5yLr34Nl-660" value="" style="rounded=0;whiteSpace=wrap;html=1;fontSize=16;fillColor=#d5e8d4;strokeColor=#82b366;" vertex="1" parent="1">
          <mxGeometry x="801" y="874" width="64" height="64" as="geometry" />
        </mxCell>
        <mxCell id="XYY6bWEJs2ji5yLr34Nl-661" value="2" style="text;html=1;align=center;verticalAlign=middle;resizable=0;points=[];autosize=1;strokeColor=none;fillColor=none;fontSize=16;" vertex="1" parent="1">
          <mxGeometry x="819.5" y="890.5" width="27" height="31" as="geometry" />
        </mxCell>
        <mxCell id="XYY6bWEJs2ji5yLr34Nl-662" value="" style="rounded=0;whiteSpace=wrap;html=1;fontSize=16;fillColor=#d5e8d4;strokeColor=#82b366;" vertex="1" parent="1">
          <mxGeometry x="865" y="874" width="64" height="64" as="geometry" />
        </mxCell>
        <mxCell id="XYY6bWEJs2ji5yLr34Nl-663" value="9" style="rounded=0;whiteSpace=wrap;html=1;fontSize=16;fillColor=#d5e8d4;strokeColor=#82b366;" vertex="1" parent="1">
          <mxGeometry x="929" y="874" width="64" height="64" as="geometry" />
        </mxCell>
        <mxCell id="XYY6bWEJs2ji5yLr34Nl-664" value="4" style="rounded=0;whiteSpace=wrap;html=1;fontSize=16;fillColor=#d5e8d4;strokeColor=#82b366;" vertex="1" parent="1">
          <mxGeometry x="801" y="938" width="64" height="64" as="geometry" />
        </mxCell>
        <mxCell id="XYY6bWEJs2ji5yLr34Nl-665" value="6" style="rounded=0;whiteSpace=wrap;html=1;fontSize=16;fillColor=#d5e8d4;strokeColor=#82b366;" vertex="1" parent="1">
          <mxGeometry x="865" y="938" width="64" height="64" as="geometry" />
        </mxCell>
        <mxCell id="XYY6bWEJs2ji5yLr34Nl-666" value="" style="rounded=0;whiteSpace=wrap;html=1;fontSize=16;fillColor=#d5e8d4;strokeColor=#82b366;" vertex="1" parent="1">
          <mxGeometry x="929" y="938" width="64" height="64" as="geometry" />
        </mxCell>
        <mxCell id="XYY6bWEJs2ji5yLr34Nl-667" value="3" style="text;html=1;align=center;verticalAlign=middle;resizable=0;points=[];autosize=1;strokeColor=none;fillColor=none;fontSize=16;" vertex="1" parent="1">
          <mxGeometry x="883.5" y="826.5" width="27" height="31" as="geometry" />
        </mxCell>
        <mxCell id="XYY6bWEJs2ji5yLr34Nl-668" value="5" style="text;html=1;align=center;verticalAlign=middle;resizable=0;points=[];autosize=1;fontSize=16;" vertex="1" parent="1">
          <mxGeometry x="947.5" y="826.5" width="27" height="31" as="geometry" />
        </mxCell>
        <mxCell id="XYY6bWEJs2ji5yLr34Nl-669" value="7" style="text;html=1;align=center;verticalAlign=middle;resizable=0;points=[];autosize=1;strokeColor=none;fillColor=none;fontSize=16;" vertex="1" parent="1">
          <mxGeometry x="883.5" y="890.5" width="27" height="31" as="geometry" />
        </mxCell>
        <mxCell id="XYY6bWEJs2ji5yLr34Nl-670" value="1" style="text;html=1;align=center;verticalAlign=middle;resizable=0;points=[];autosize=1;fontSize=16;" vertex="1" parent="1">
          <mxGeometry x="947.5" y="954.5" width="27" height="31" as="geometry" />
        </mxCell>
        <mxCell id="XYY6bWEJs2ji5yLr34Nl-671" value="" style="endArrow=none;html=1;rounded=0;fontSize=12;startSize=8;endSize=8;curved=1;fillColor=#f8cecc;strokeColor=#b85450;strokeWidth=7;entryX=1;entryY=0;entryDx=0;entryDy=0;exitX=0;exitY=0;exitDx=0;exitDy=0;" edge="1" parent="1" source="XYY6bWEJs2ji5yLr34Nl-628" target="XYY6bWEJs2ji5yLr34Nl-659">
          <mxGeometry width="50" height="50" relative="1" as="geometry">
            <mxPoint x="639" y="1032" as="sourcePoint" />
            <mxPoint x="639" y="456" as="targetPoint" />
          </mxGeometry>
        </mxCell>
        <mxCell id="XYY6bWEJs2ji5yLr34Nl-672" value="" style="endArrow=none;html=1;rounded=0;fontSize=12;startSize=8;endSize=8;curved=1;fillColor=#f8cecc;strokeColor=#b85450;strokeWidth=7;entryX=1;entryY=0;entryDx=0;entryDy=0;exitX=0;exitY=1;exitDx=0;exitDy=0;" edge="1" parent="1">
          <mxGeometry width="50" height="50" relative="1" as="geometry">
            <mxPoint x="609" y="1002" as="sourcePoint" />
            <mxPoint x="609" y="426" as="targetPoint" />
          </mxGeometry>
        </mxCell>
        <mxCell id="XYY6bWEJs2ji5yLr34Nl-673" value="" style="endArrow=none;html=1;rounded=0;fontSize=12;startSize=8;endSize=8;curved=1;fillColor=#f8cecc;strokeColor=#b85450;strokeWidth=7;entryX=1;entryY=0;entryDx=0;entryDy=0;exitX=0;exitY=1;exitDx=0;exitDy=0;" edge="1" parent="1">
          <mxGeometry width="50" height="50" relative="1" as="geometry">
            <mxPoint x="801" y="1002" as="sourcePoint" />
            <mxPoint x="801" y="426" as="targetPoint" />
          </mxGeometry>
        </mxCell>
      </root>
    </mxGraphModel>
  </diagram>
</mxfile>
